<?xml version="1.0" encoding="UTF-8"?><svg id="Ebene_1" xmlns="http://www.w3.org/2000/svg" viewBox="0 0 657.5 472.09"><defs><style>.cls-1{stroke:#cdd7d6;stroke-linecap:round;}.cls-1,.cls-2{stroke-width:3px;}.cls-1,.cls-2,.cls-3{fill:none;stroke-miterlimit:10;}.cls-2{stroke:#f87060;}.cls-4{fill:#f87060;}.cls-5{fill:#fff;}.cls-6{fill:#cdd7d6;}.cls-7{fill:#102542;}.cls-3{stroke:#102542;stroke-width:5px;}</style></defs><g><path class="cls-1" d="M350.45,47.34s-3.28-12.07-11.67-12.07-11.6,11.74-11.6,11.74"/><path class="cls-2" d="M252.02,65.12s13.83,12.07,49.14,12.07,48.82-11.74,48.82-11.74"/><path class="cls-1" d="M275.45,47.34s-3.28-12.07-11.67-12.07-11.6,11.74-11.6,11.74"/><rect class="cls-7" x="199.08" y="46.2" width="54.8" height="19.98"/><rect class="cls-6" x="273.76" y="46.2" width="54.8" height="19.98"/><rect class="cls-7" x="348.44" y="46.2" width="54.8" height="19.98"/><g><path class="cls-5" d="M243.17,57.96c.02,1.43,.94,2.01,1.99,2.01,.76,0,1.21-.13,1.61-.3l.18,.76c-.37,.17-1.01,.36-1.93,.36-1.79,0-2.85-1.18-2.85-2.93s1.03-3.13,2.72-3.13c1.9,0,2.4,1.67,2.4,2.73,0,.22-.02,.38-.04,.49h-4.08Zm3.09-.76c.01-.67-.28-1.71-1.46-1.71-1.07,0-1.54,.98-1.62,1.71h3.08Z"/><path class="cls-5" d="M250.55,53.85h-.02l-1.36,.73-.2-.8,1.7-.91h.9v7.8h-1.02v-6.81Z"/></g><g><path class="cls-5" d="M276.18,60.04c.31,.2,.86,.42,1.39,.42,.77,0,1.13-.38,1.13-.86,0-.5-.3-.78-1.08-1.07-1.04-.37-1.54-.95-1.54-1.64,0-.94,.76-1.7,2-1.7,.59,0,1.1,.17,1.43,.36l-.26,.77c-.23-.14-.65-.34-1.19-.34-.62,0-.97,.36-.97,.79,0,.48,.35,.7,1.1,.98,1.01,.38,1.52,.89,1.52,1.75,0,1.02-.79,1.74-2.17,1.74-.64,0-1.22-.16-1.63-.4l.26-.8Z"/><path class="cls-5" d="M280.74,61.12v-.65l.83-.8c1.99-1.9,2.89-2.9,2.9-4.08,0-.79-.38-1.52-1.55-1.52-.71,0-1.3,.36-1.66,.66l-.34-.74c.54-.46,1.31-.79,2.21-.79,1.68,0,2.39,1.15,2.39,2.27,0,1.44-1.04,2.6-2.69,4.19l-.62,.58v.02h3.5v.88h-4.98Z"/></g><g><path class="cls-5" d="M315.92,58.41c.02,1.43,.94,2.01,1.99,2.01,.76,0,1.21-.13,1.61-.3l.18,.76c-.37,.17-1.01,.36-1.93,.36-1.79,0-2.85-1.18-2.85-2.93s1.03-3.13,2.72-3.13c1.9,0,2.4,1.67,2.4,2.73,0,.22-.02,.38-.04,.49h-4.08Zm3.09-.76c.01-.67-.28-1.71-1.46-1.71-1.07,0-1.54,.98-1.62,1.71h3.08Z"/><path class="cls-5" d="M321,61.12v-.65l.83-.8c1.99-1.9,2.89-2.9,2.9-4.08,0-.79-.38-1.52-1.55-1.52-.71,0-1.3,.36-1.66,.66l-.34-.74c.54-.46,1.31-.79,2.21-.79,1.68,0,2.39,1.15,2.39,2.27,0,1.44-1.04,2.6-2.69,4.19l-.62,.58v.02h3.5v.88h-4.98Z"/></g><g><path class="cls-5" d="M350.43,59.59c.31,.2,.86,.42,1.39,.42,.77,0,1.13-.38,1.13-.86,0-.5-.3-.78-1.08-1.07-1.04-.37-1.54-.95-1.54-1.64,0-.94,.76-1.7,2-1.7,.59,0,1.1,.17,1.43,.36l-.26,.77c-.23-.14-.65-.34-1.19-.34-.62,0-.97,.36-.97,.79,0,.48,.35,.7,1.1,.98,1.01,.38,1.52,.89,1.52,1.75,0,1.02-.79,1.74-2.17,1.74-.64,0-1.22-.16-1.63-.4l.26-.8Z"/><path class="cls-5" d="M355.25,59.45c.3,.19,1,.49,1.73,.49,1.36,0,1.77-.86,1.76-1.51-.01-1.09-1-1.56-2.02-1.56h-.59v-.79h.59c.77,0,1.74-.4,1.74-1.32,0-.62-.4-1.18-1.37-1.18-.62,0-1.22,.28-1.56,.52l-.28-.77c.41-.3,1.2-.6,2.04-.6,1.54,0,2.23,.91,2.23,1.86,0,.8-.48,1.49-1.44,1.83v.02c.96,.19,1.74,.91,1.74,2,0,1.25-.97,2.34-2.84,2.34-.88,0-1.64-.28-2.03-.53l.29-.82Z"/></g><g><path d="M3.54,60.02c.7,.43,1.73,.79,2.81,.79,1.6,0,2.54-.85,2.54-2.07,0-1.13-.65-1.78-2.29-2.41-1.98-.7-3.21-1.73-3.21-3.44,0-1.89,1.57-3.29,3.93-3.29,1.24,0,2.14,.29,2.68,.59l-.43,1.28c-.4-.22-1.21-.58-2.3-.58-1.66,0-2.29,.99-2.29,1.82,0,1.13,.74,1.69,2.41,2.34,2.05,.79,3.1,1.78,3.1,3.56,0,1.87-1.39,3.49-4.25,3.49-1.17,0-2.45-.34-3.1-.77l.4-1.31Z"/><path d="M14.15,57.21h.04c.22-.31,.52-.68,.77-.99l2.56-3.01h1.91l-3.37,3.58,3.83,5.13h-1.93l-3.01-4.18-.81,.9v3.28h-1.57v-12.78h1.57v8.07Z"/><path d="M23.09,50.76c.02,.54-.38,.97-1.01,.97-.56,0-.95-.43-.95-.97s.41-.99,.99-.99,.97,.43,.97,.99Zm-1.76,11.16v-8.71h1.58v8.71h-1.58Z"/><path d="M25.54,56.06c0-1.12-.04-2.02-.07-2.85h1.42l.07,1.49h.04c.65-1.06,1.67-1.69,3.1-1.69,2.11,0,3.69,1.78,3.69,4.43,0,3.13-1.91,4.68-3.96,4.68-1.15,0-2.16-.5-2.68-1.37h-.04v4.74h-1.57v-9.43Zm1.57,2.32c0,.23,.04,.45,.07,.65,.29,1.1,1.24,1.85,2.38,1.85,1.67,0,2.65-1.37,2.65-3.37,0-1.75-.92-3.24-2.59-3.24-1.08,0-2.09,.77-2.4,1.96-.05,.2-.11,.43-.11,.65v1.49Z"/><path d="M35.78,56.06c0-1.12-.04-2.02-.07-2.85h1.42l.07,1.49h.04c.65-1.06,1.67-1.69,3.1-1.69,2.11,0,3.69,1.78,3.69,4.43,0,3.13-1.91,4.68-3.96,4.68-1.15,0-2.16-.5-2.68-1.37h-.04v4.74h-1.57v-9.43Zm1.57,2.32c0,.23,.04,.45,.07,.65,.29,1.1,1.24,1.85,2.38,1.85,1.67,0,2.65-1.37,2.65-3.37,0-1.75-.92-3.24-2.59-3.24-1.08,0-2.09,.77-2.4,1.96-.05,.2-.11,.43-.11,.65v1.49Z"/><path d="M47.79,50.76c.02,.54-.38,.97-1.01,.97-.56,0-.95-.43-.95-.97s.41-.99,.99-.99,.97,.43,.97,.99Zm-1.76,11.16v-8.71h1.58v8.71h-1.58Z"/><path d="M50.24,55.57c0-.9-.02-1.64-.07-2.36h1.4l.09,1.44h.04c.43-.83,1.44-1.64,2.88-1.64,1.21,0,3.08,.72,3.08,3.71v5.2h-1.58v-5.02c0-1.4-.52-2.57-2.02-2.57-1.04,0-1.85,.74-2.12,1.62-.07,.2-.11,.47-.11,.74v5.24h-1.58v-6.36Z"/><path d="M67.73,53.21c-.04,.63-.07,1.33-.07,2.4v5.06c0,2-.4,3.22-1.24,3.98-.85,.79-2.07,1.04-3.17,1.04s-2.2-.25-2.9-.72l.4-1.21c.58,.36,1.48,.68,2.56,.68,1.62,0,2.81-.85,2.81-3.04v-.97h-.04c-.49,.81-1.42,1.46-2.77,1.46-2.16,0-3.71-1.84-3.71-4.25,0-2.95,1.93-4.63,3.93-4.63,1.51,0,2.34,.79,2.72,1.51h.04l.07-1.31h1.39Zm-1.64,3.44c0-.27-.02-.5-.09-.72-.29-.92-1.06-1.67-2.21-1.67-1.51,0-2.59,1.28-2.59,3.29,0,1.71,.86,3.13,2.57,3.13,.97,0,1.85-.61,2.2-1.62,.09-.27,.13-.58,.13-.85v-1.57Z"/></g><g><path d="M502.83,59.39c.47,.29,1.15,.53,1.87,.53,1.07,0,1.69-.56,1.69-1.38,0-.76-.43-1.19-1.52-1.61-1.32-.47-2.13-1.15-2.13-2.29,0-1.26,1.04-2.19,2.61-2.19,.83,0,1.43,.19,1.79,.4l-.29,.85c-.26-.14-.8-.38-1.54-.38-1.1,0-1.52,.66-1.52,1.21,0,.76,.49,1.13,1.61,1.56,1.37,.53,2.06,1.19,2.06,2.37,0,1.25-.92,2.33-2.83,2.33-.78,0-1.63-.23-2.06-.52l.26-.88Z"/><path d="M513.08,56.88h-3.14v2.91h3.5v.88h-4.55v-8.08h4.37v.88h-3.32v2.55h3.14v.86Z"/><path d="M528.07,57.96c.02,1.43,.94,2.01,1.99,2.01,.76,0,1.21-.13,1.61-.3l.18,.76c-.37,.17-1.01,.36-1.93,.36-1.79,0-2.85-1.18-2.85-2.93s1.03-3.13,2.72-3.13c1.9,0,2.4,1.67,2.4,2.73,0,.22-.02,.38-.04,.49h-4.08Zm3.09-.76c.01-.67-.28-1.71-1.46-1.71-1.07,0-1.54,.98-1.62,1.71h3.08Z"/><path d="M535.45,53.85h-.02l-1.36,.73-.2-.8,1.7-.91h.9v7.8h-1.02v-6.81Z"/><path d="M542.09,57.03v.78h-2.96v-.78h2.96Z"/><path d="M543.19,59.59c.31,.2,.86,.42,1.39,.42,.77,0,1.13-.38,1.13-.86,0-.5-.3-.78-1.08-1.07-1.04-.37-1.54-.95-1.54-1.64,0-.94,.76-1.7,2-1.7,.59,0,1.1,.17,1.43,.36l-.26,.77c-.23-.14-.65-.34-1.19-.34-.62,0-.97,.36-.97,.79,0,.48,.35,.7,1.1,.98,1.01,.38,1.52,.89,1.52,1.75,0,1.02-.79,1.74-2.17,1.74-.64,0-1.22-.16-1.63-.4l.26-.8Z"/><path d="M547.75,60.67v-.65l.83-.8c1.99-1.9,2.89-2.9,2.9-4.08,0-.79-.38-1.52-1.55-1.52-.71,0-1.3,.36-1.66,.66l-.34-.74c.54-.46,1.31-.79,2.21-.79,1.68,0,2.39,1.15,2.39,2.27,0,1.44-1.04,2.6-2.69,4.19l-.62,.58v.02h3.5v.88h-4.98Z"/><path d="M553.99,55.82c0-.44,.3-.76,.72-.76s.7,.31,.71,.76c0,.42-.28,.74-.72,.74-.42,0-.71-.32-.71-.74Zm0,4.23c0-.44,.3-.76,.72-.76s.7,.31,.71,.76c0,.42-.28,.74-.72,.74-.42,0-.71-.32-.71-.74Z"/><path d="M557.31,57.96c.02,1.43,.94,2.01,1.99,2.01,.76,0,1.21-.13,1.61-.3l.18,.76c-.37,.17-1.01,.36-1.93,.36-1.79,0-2.85-1.18-2.85-2.93s1.03-3.13,2.72-3.13c1.9,0,2.4,1.67,2.4,2.73,0,.22-.02,.38-.04,.49h-4.08Zm3.09-.76c.01-.67-.28-1.71-1.46-1.71-1.07,0-1.54,.98-1.62,1.71h3.08Z"/><path d="M562.4,60.67v-.65l.83-.8c1.99-1.9,2.89-2.9,2.9-4.08,0-.79-.38-1.52-1.55-1.52-.71,0-1.3,.36-1.66,.66l-.34-.74c.54-.46,1.31-.79,2.21-.79,1.68,0,2.39,1.15,2.39,2.27,0,1.44-1.04,2.6-2.69,4.19l-.62,.58v.02h3.5v.88h-4.98Z"/><path d="M571.34,57.03v.78h-2.96v-.78h2.96Z"/><path d="M572.43,59.59c.31,.2,.86,.42,1.39,.42,.77,0,1.13-.38,1.13-.86,0-.5-.3-.78-1.08-1.07-1.04-.37-1.54-.95-1.54-1.64,0-.94,.76-1.7,2-1.7,.59,0,1.1,.17,1.43,.36l-.26,.77c-.23-.14-.65-.34-1.19-.34-.62,0-.97,.36-.97,.79,0,.48,.35,.7,1.1,.98,1.01,.38,1.52,.89,1.52,1.75,0,1.02-.79,1.74-2.17,1.74-.64,0-1.22-.16-1.63-.4l.26-.8Z"/><path d="M577.24,59.45c.3,.19,1,.49,1.73,.49,1.36,0,1.77-.86,1.76-1.51-.01-1.09-1-1.56-2.02-1.56h-.59v-.79h.59c.77,0,1.74-.4,1.74-1.32,0-.62-.4-1.18-1.37-1.18-.62,0-1.22,.28-1.56,.52l-.28-.77c.41-.3,1.2-.6,2.04-.6,1.54,0,2.23,.91,2.23,1.86,0,.8-.48,1.49-1.44,1.83v.02c.96,.19,1.74,.91,1.74,2,0,1.25-.97,2.34-2.84,2.34-.88,0-1.64-.28-2.03-.53l.29-.82Z"/></g></g><g><path class="cls-2" d="M424.79,109.16s-13.78-12.07-48.96-12.07-48.64,11.74-48.64,11.74"/><path class="cls-1" d="M252.02,126.94s13.83,12.07,49.14,12.07,48.82-11.74,48.82-11.74"/><path class="cls-2" d="M275.45,109.16s-3.28-12.07-11.67-12.07-11.6,11.74-11.6,11.74"/><path class="cls-1" d="M401.56,126.94s3.28,12.07,11.67,12.07,11.6-11.74,11.6-11.74"/><rect class="cls-7" x="199.08" y="108.03" width="54.8" height="19.98"/><rect class="cls-4" x="273.76" y="108.03" width="54.8" height="19.98"/><rect class="cls-7" x="423.44" y="108.03" width="54.8" height="19.98"/><g><path class="cls-5" d="M243.17,119.78c.02,1.43,.94,2.01,1.99,2.01,.76,0,1.21-.13,1.61-.3l.18,.76c-.37,.17-1.01,.36-1.93,.36-1.79,0-2.85-1.18-2.85-2.93s1.03-3.13,2.72-3.13c1.9,0,2.4,1.67,2.4,2.73,0,.22-.02,.38-.04,.49h-4.08Zm3.09-.76c.01-.67-.28-1.71-1.46-1.71-1.07,0-1.54,.98-1.62,1.71h3.08Z"/><path class="cls-5" d="M250.55,115.68h-.02l-1.36,.73-.2-.8,1.7-.91h.9v7.8h-1.02v-6.81Z"/></g><g><path class="cls-5" d="M276.18,121.86c.31,.2,.86,.42,1.39,.42,.77,0,1.13-.38,1.13-.86,0-.5-.3-.78-1.08-1.07-1.04-.37-1.54-.95-1.54-1.64,0-.94,.76-1.7,2-1.7,.59,0,1.1,.17,1.43,.36l-.26,.77c-.23-.14-.65-.34-1.19-.34-.62,0-.97,.36-.97,.79,0,.48,.35,.7,1.1,.98,1.01,.38,1.52,.89,1.52,1.75,0,1.02-.79,1.74-2.17,1.74-.64,0-1.22-.16-1.63-.4l.26-.8Z"/><path class="cls-5" d="M280.74,122.94v-.65l.83-.8c1.99-1.9,2.89-2.9,2.9-4.08,0-.79-.38-1.52-1.55-1.52-.71,0-1.3,.36-1.66,.66l-.34-.74c.54-.46,1.31-.79,2.21-.79,1.68,0,2.39,1.15,2.39,2.27,0,1.44-1.04,2.6-2.69,4.19l-.62,.58v.02h3.5v.88h-4.98Z"/></g><g><path class="cls-5" d="M315.92,120.23c.02,1.43,.94,2.01,1.99,2.01,.76,0,1.21-.13,1.61-.3l.18,.76c-.37,.17-1.01,.36-1.93,.36-1.79,0-2.85-1.18-2.85-2.93s1.03-3.13,2.72-3.13c1.9,0,2.4,1.67,2.4,2.73,0,.22-.02,.38-.04,.49h-4.08Zm3.09-.76c.01-.67-.28-1.71-1.46-1.71-1.07,0-1.54,.98-1.62,1.71h3.08Z"/><path class="cls-5" d="M321,122.94v-.65l.83-.8c1.99-1.9,2.89-2.9,2.9-4.08,0-.79-.38-1.52-1.55-1.52-.71,0-1.3,.36-1.66,.66l-.34-.74c.54-.46,1.31-.79,2.21-.79,1.68,0,2.39,1.15,2.39,2.27,0,1.44-1.04,2.6-2.69,4.19l-.62,.58v.02h3.5v.88h-4.98Z"/></g><g><path d="M11.97,118.42c-.09-1.69-.2-3.73-.18-5.24h-.05c-.41,1.42-.92,2.94-1.53,4.61l-2.14,5.89h-1.19l-1.96-5.78c-.58-1.71-1.06-3.28-1.4-4.72h-.04c-.04,1.51-.13,3.55-.23,5.37l-.32,5.2H1.42l.85-12.14h2l2.07,5.87c.5,1.49,.92,2.83,1.22,4.09h.05c.31-1.22,.74-2.56,1.28-4.09l2.16-5.87h2l.76,12.14h-1.53l-.31-5.33Z"/><path d="M23.51,121.37c0,.9,.02,1.69,.07,2.38h-1.4l-.09-1.42h-.04c-.41,.7-1.33,1.62-2.88,1.62-1.37,0-3.01-.76-3.01-3.82v-5.1h1.58v4.83c0,1.66,.5,2.77,1.94,2.77,1.06,0,1.8-.74,2.09-1.44,.09-.23,.14-.52,.14-.81v-5.35h1.58v6.34Z"/><path d="M28.04,112.53v2.5h2.27v1.21h-2.27v4.7c0,1.08,.31,1.69,1.19,1.69,.41,0,.72-.05,.92-.11l.07,1.19c-.31,.13-.79,.22-1.4,.22-.74,0-1.33-.23-1.71-.67-.45-.47-.61-1.24-.61-2.27v-4.75h-1.35v-1.21h1.35v-2.09l1.55-.41Z"/><path d="M36.91,123.75l-.13-1.1h-.05c-.49,.68-1.42,1.3-2.67,1.3-1.76,0-2.66-1.24-2.66-2.5,0-2.11,1.87-3.26,5.24-3.24v-.18c0-.72-.2-2.02-1.98-2.02-.81,0-1.66,.25-2.27,.65l-.36-1.04c.72-.47,1.76-.77,2.86-.77,2.67,0,3.31,1.82,3.31,3.56v3.26c0,.76,.04,1.49,.14,2.09h-1.44Zm-.23-4.45c-1.73-.04-3.69,.27-3.69,1.96,0,1.03,.68,1.51,1.49,1.51,1.13,0,1.85-.72,2.11-1.46,.05-.16,.09-.34,.09-.5v-1.51Z"/><path d="M40.76,110.96h1.58v12.78h-1.58v-12.78Z"/><path d="M45.01,110.96h1.58v12.78h-1.58v-12.78Z"/><path d="M49.84,115.03l1.91,5.15c.2,.58,.41,1.26,.56,1.78h.04c.16-.52,.34-1.19,.56-1.82l1.73-5.11h1.67l-2.38,6.21c-1.13,2.99-1.91,4.52-2.99,5.46-.77,.68-1.55,.95-1.94,1.03l-.4-1.33c.4-.13,.92-.38,1.39-.77,.43-.34,.97-.95,1.33-1.76,.07-.16,.13-.29,.13-.38s-.04-.22-.11-.41l-3.22-8.03h1.73Z"/></g><g><path d="M509.09,118.94c-.06-1.13-.13-2.48-.12-3.49h-.04c-.28,.95-.61,1.96-1.02,3.07l-1.43,3.92h-.79l-1.31-3.85c-.38-1.14-.71-2.18-.94-3.14h-.02c-.02,1.01-.08,2.36-.16,3.57l-.22,3.47h-1l.56-8.08h1.33l1.38,3.91c.34,1,.61,1.88,.82,2.72h.04c.2-.82,.49-1.7,.85-2.72l1.44-3.91h1.33l.5,8.08h-1.02l-.2-3.55Z"/><path d="M516.35,122.49l-1.03-1.79c-.42-.68-.68-1.13-.94-1.6h-.02c-.23,.47-.46,.9-.88,1.61l-.97,1.77h-1.2l2.47-4.09-2.38-3.99h1.21l1.07,1.9c.3,.53,.53,.94,.74,1.37h.04c.23-.48,.43-.85,.73-1.37l1.1-1.9h1.2l-2.46,3.93,2.52,4.15h-1.21Z"/><path d="M529.51,119.78c.02,1.43,.93,2.01,1.99,2.01,.76,0,1.21-.13,1.61-.3l.18,.76c-.37,.17-1.01,.36-1.93,.36-1.79,0-2.85-1.18-2.85-2.93s1.03-3.13,2.72-3.13c1.89,0,2.4,1.67,2.4,2.73,0,.22-.02,.38-.04,.49h-4.08Zm3.09-.76c.01-.67-.28-1.71-1.46-1.71-1.07,0-1.54,.98-1.62,1.71h3.08Z"/><path d="M536.89,115.68h-.02l-1.36,.73-.2-.8,1.7-.91h.9v7.8h-1.02v-6.81Z"/><path d="M543.53,118.85v.78h-2.96v-.78h2.96Z"/><path d="M544.63,121.41c.31,.2,.86,.42,1.39,.42,.77,0,1.13-.38,1.13-.86,0-.5-.3-.78-1.08-1.07-1.04-.37-1.54-.95-1.54-1.64,0-.94,.76-1.7,2-1.7,.59,0,1.1,.17,1.43,.36l-.26,.77c-.23-.14-.65-.34-1.19-.34-.62,0-.97,.36-.97,.79,0,.48,.35,.7,1.1,.98,1.01,.38,1.52,.89,1.52,1.75,0,1.02-.79,1.74-2.17,1.74-.63,0-1.22-.16-1.63-.4l.26-.8Z"/><path d="M549.19,122.49v-.65l.83-.8c1.99-1.9,2.89-2.9,2.9-4.08,0-.79-.38-1.52-1.55-1.52-.71,0-1.29,.36-1.66,.66l-.34-.74c.54-.46,1.31-.79,2.21-.79,1.68,0,2.39,1.15,2.39,2.27,0,1.44-1.04,2.6-2.69,4.19l-.62,.58v.02h3.5v.88h-4.98Z"/><path d="M555.43,117.64c0-.44,.3-.76,.72-.76s.7,.31,.71,.76c0,.42-.28,.74-.72,.74-.42,0-.71-.32-.71-.74Zm0,4.23c0-.44,.3-.76,.72-.76s.7,.31,.71,.76c0,.42-.28,.74-.72,.74-.42,0-.71-.32-.71-.74Z"/><path d="M558.75,119.78c.02,1.43,.93,2.01,1.99,2.01,.76,0,1.21-.13,1.61-.3l.18,.76c-.37,.17-1.01,.36-1.93,.36-1.79,0-2.85-1.18-2.85-2.93s1.03-3.13,2.72-3.13c1.89,0,2.4,1.67,2.4,2.73,0,.22-.02,.38-.04,.49h-4.08Zm3.09-.76c.01-.67-.28-1.71-1.46-1.71-1.07,0-1.54,.98-1.62,1.71h3.08Z"/><path d="M563.84,122.49v-.65l.83-.8c1.99-1.9,2.89-2.9,2.9-4.08,0-.79-.38-1.52-1.55-1.52-.71,0-1.29,.36-1.66,.66l-.34-.74c.54-.46,1.31-.79,2.21-.79,1.68,0,2.39,1.15,2.39,2.27,0,1.44-1.04,2.6-2.69,4.19l-.62,.58v.02h3.5v.88h-4.98Z"/><path d="M572.78,118.85v.78h-2.96v-.78h2.96Z"/><path d="M573.87,121.41c.31,.2,.86,.42,1.39,.42,.77,0,1.13-.38,1.13-.86,0-.5-.3-.78-1.08-1.07-1.04-.37-1.54-.95-1.54-1.64,0-.94,.76-1.7,2-1.7,.59,0,1.1,.17,1.43,.36l-.26,.77c-.23-.14-.65-.34-1.19-.34-.62,0-.97,.36-.97,.79,0,.48,.35,.7,1.1,.98,1.01,.38,1.52,.89,1.52,1.75,0,1.02-.79,1.74-2.17,1.74-.63,0-1.22-.16-1.63-.4l.26-.8Z"/><path d="M581.69,122.49v-2.12h-3.62v-.7l3.48-4.98h1.14v4.85h1.09v.83h-1.09v2.12h-1Zm0-2.95v-2.6c0-.41,.01-.82,.04-1.22h-.04c-.24,.46-.43,.79-.65,1.15l-1.91,2.65v.02h2.55Z"/><path d="M584.67,117.64c0-.44,.3-.76,.72-.76s.7,.31,.71,.76c0,.42-.28,.74-.72,.74-.42,0-.71-.32-.71-.74Zm0,4.23c0-.44,.3-.76,.72-.76s.7,.31,.71,.76c0,.42-.28,.74-.72,.74-.42,0-.71-.32-.71-.74Z"/><path d="M587.99,119.78c.02,1.43,.93,2.01,1.99,2.01,.76,0,1.21-.13,1.61-.3l.18,.76c-.37,.17-1.01,.36-1.93,.36-1.79,0-2.85-1.18-2.85-2.93s1.03-3.13,2.72-3.13c1.89,0,2.4,1.67,2.4,2.73,0,.22-.02,.38-.04,.49h-4.08Zm3.09-.76c.01-.67-.28-1.71-1.46-1.71-1.07,0-1.54,.98-1.62,1.71h3.08Z"/><path d="M595.37,115.68h-.02l-1.36,.73-.2-.8,1.7-.91h.9v7.8h-1.02v-6.81Z"/><path d="M602.02,118.85v.78h-2.96v-.78h2.96Z"/><path d="M603.11,121.41c.31,.2,.86,.42,1.39,.42,.77,0,1.13-.38,1.13-.86,0-.5-.3-.78-1.08-1.07-1.04-.37-1.54-.95-1.54-1.64,0-.94,.76-1.7,2-1.7,.59,0,1.1,.17,1.43,.36l-.26,.77c-.23-.14-.65-.34-1.19-.34-.62,0-.97,.36-.97,.79,0,.48,.35,.7,1.1,.98,1.01,.38,1.52,.89,1.52,1.75,0,1.02-.79,1.74-2.17,1.74-.63,0-1.22-.16-1.63-.4l.26-.8Z"/><path d="M607.93,121.28c.3,.19,1,.49,1.73,.49,1.36,0,1.78-.86,1.76-1.51-.01-1.09-1-1.56-2.02-1.56h-.59v-.79h.59c.77,0,1.74-.4,1.74-1.32,0-.62-.4-1.18-1.37-1.18-.62,0-1.22,.28-1.56,.52l-.28-.77c.41-.3,1.2-.6,2.04-.6,1.54,0,2.23,.91,2.23,1.86,0,.8-.48,1.49-1.44,1.83v.02c.96,.19,1.74,.91,1.74,2,0,1.25-.97,2.34-2.84,2.34-.88,0-1.64-.28-2.03-.53l.29-.82Z"/><path d="M613.91,117.64c0-.44,.3-.76,.72-.76s.7,.31,.71,.76c0,.42-.28,.74-.72,.74-.42,0-.71-.32-.71-.74Zm0,4.23c0-.44,.3-.76,.72-.76s.7,.31,.71,.76c0,.42-.28,.74-.72,.74-.42,0-.71-.32-.71-.74Z"/><path d="M617.24,119.78c.02,1.43,.93,2.01,1.99,2.01,.76,0,1.21-.13,1.61-.3l.18,.76c-.37,.17-1.01,.36-1.93,.36-1.79,0-2.85-1.18-2.85-2.93s1.03-3.13,2.72-3.13c1.89,0,2.4,1.67,2.4,2.73,0,.22-.02,.38-.04,.49h-4.08Zm3.09-.76c.01-.67-.28-1.71-1.46-1.71-1.07,0-1.54,.98-1.62,1.71h3.08Z"/><path d="M622.58,121.28c.3,.19,1,.49,1.73,.49,1.36,0,1.78-.86,1.76-1.51-.01-1.09-1-1.56-2.02-1.56h-.59v-.79h.59c.77,0,1.74-.4,1.74-1.32,0-.62-.4-1.18-1.37-1.18-.62,0-1.22,.28-1.56,.52l-.28-.77c.41-.3,1.2-.6,2.04-.6,1.54,0,2.23,.91,2.23,1.86,0,.8-.48,1.49-1.44,1.83v.02c.96,.19,1.74,.91,1.74,2,0,1.25-.97,2.34-2.84,2.34-.88,0-1.64-.28-2.03-.53l.29-.82Z"/><path d="M631.26,118.85v.78h-2.96v-.78h2.96Z"/><path d="M632.36,121.41c.31,.2,.86,.42,1.39,.42,.77,0,1.13-.38,1.13-.86,0-.5-.3-.78-1.08-1.07-1.04-.37-1.54-.95-1.54-1.64,0-.94,.76-1.7,2-1.7,.59,0,1.1,.17,1.43,.36l-.26,.77c-.23-.14-.65-.34-1.19-.34-.62,0-.97,.36-.97,.79,0,.48,.35,.7,1.1,.98,1.01,.38,1.52,.89,1.52,1.75,0,1.02-.79,1.74-2.17,1.74-.63,0-1.22-.16-1.63-.4l.26-.8Z"/><path d="M640.18,122.49v-2.12h-3.62v-.7l3.48-4.98h1.14v4.85h1.09v.83h-1.09v2.12h-1Zm0-2.95v-2.6c0-.41,.01-.82,.04-1.22h-.04c-.24,.46-.43,.79-.65,1.15l-1.91,2.65v.02h2.55Z"/></g><rect class="cls-6" x="348.76" y="108.03" width="54.8" height="19.98"/><g><path class="cls-5" d="M350.43,121.41c.31,.2,.86,.42,1.39,.42,.77,0,1.13-.38,1.13-.86,0-.5-.3-.78-1.08-1.07-1.04-.37-1.54-.95-1.54-1.64,0-.94,.76-1.7,2-1.7,.59,0,1.1,.17,1.43,.36l-.26,.77c-.23-.14-.65-.34-1.19-.34-.62,0-.97,.36-.97,.79,0,.48,.35,.7,1.1,.98,1.01,.38,1.52,.89,1.52,1.75,0,1.02-.79,1.74-2.17,1.74-.64,0-1.22-.16-1.63-.4l.26-.8Z"/><path class="cls-5" d="M355.25,121.28c.3,.19,1,.49,1.73,.49,1.36,0,1.77-.86,1.76-1.51-.01-1.09-1-1.56-2.02-1.56h-.59v-.79h.59c.77,0,1.74-.4,1.74-1.32,0-.62-.4-1.18-1.37-1.18-.62,0-1.22,.28-1.56,.52l-.28-.77c.41-.3,1.2-.6,2.04-.6,1.54,0,2.23,.91,2.23,1.86,0,.8-.48,1.49-1.44,1.83v.02c.96,.19,1.74,.91,1.74,2,0,1.25-.97,2.34-2.84,2.34-.88,0-1.64-.28-2.03-.53l.29-.82Z"/></g><g><path class="cls-5" d="M391.17,119.78c.02,1.43,.94,2.01,1.99,2.01,.76,0,1.21-.13,1.61-.3l.18,.76c-.37,.17-1.01,.36-1.93,.36-1.79,0-2.85-1.18-2.85-2.93s1.03-3.13,2.72-3.13c1.9,0,2.4,1.67,2.4,2.73,0,.22-.02,.38-.04,.49h-4.08Zm3.09-.76c.01-.67-.28-1.71-1.46-1.71-1.07,0-1.54,.98-1.62,1.71h3.08Z"/><path class="cls-5" d="M396.51,121.28c.3,.19,1,.49,1.73,.49,1.36,0,1.77-.86,1.76-1.51-.01-1.09-1-1.56-2.02-1.56h-.59v-.79h.59c.77,0,1.74-.4,1.74-1.32,0-.62-.4-1.18-1.37-1.18-.62,0-1.22,.28-1.56,.52l-.28-.77c.41-.3,1.2-.6,2.04-.6,1.54,0,2.23,.91,2.23,1.86,0,.8-.48,1.49-1.44,1.83v.02c.96,.19,1.74,.91,1.74,2,0,1.25-.97,2.34-2.84,2.34-.88,0-1.64-.28-2.03-.53l.29-.82Z"/></g><g><path class="cls-5" d="M425.43,121.41c.31,.2,.86,.42,1.39,.42,.77,0,1.13-.38,1.13-.86,0-.5-.3-.78-1.08-1.07-1.04-.37-1.54-.95-1.54-1.64,0-.94,.76-1.7,2-1.7,.59,0,1.1,.17,1.43,.36l-.26,.77c-.23-.14-.65-.34-1.19-.34-.62,0-.97,.36-.97,.79,0,.48,.35,.7,1.1,.98,1.01,.38,1.52,.89,1.52,1.75,0,1.02-.79,1.74-2.17,1.74-.64,0-1.22-.16-1.63-.4l.26-.8Z"/><path class="cls-5" d="M433.26,122.49v-2.12h-3.62v-.7l3.48-4.98h1.14v4.85h1.09v.83h-1.09v2.12h-1Zm0-2.95v-2.6c0-.41,.01-.82,.04-1.22h-.04c-.24,.46-.43,.79-.65,1.15l-1.91,2.65v.02h2.55Z"/></g><g><path d="M126.3,119.68c.04,2.14,1.4,3.02,2.99,3.02,1.13,0,1.82-.2,2.41-.45l.27,1.13c-.56,.25-1.51,.54-2.9,.54-2.68,0-4.29-1.76-4.29-4.39s1.55-4.7,4.09-4.7c2.84,0,3.6,2.5,3.6,4.1,0,.32-.04,.58-.05,.74h-6.12Zm4.65-1.13c.02-1.01-.41-2.57-2.2-2.57-1.6,0-2.3,1.48-2.43,2.57h4.63Z"/><path d="M135.12,115.03l1.24,1.87c.32,.49,.59,.94,.88,1.42h.05c.29-.52,.58-.97,.86-1.44l1.22-1.85h1.71l-2.97,4.21,3.06,4.5h-1.8l-1.28-1.96c-.34-.5-.63-.99-.94-1.51h-.04c-.29,.52-.59,.99-.92,1.51l-1.26,1.96h-1.75l3.1-4.45-2.95-4.27h1.76Z"/><path d="M150.33,119.32c0,3.22-2.23,4.63-4.34,4.63-2.36,0-4.18-1.73-4.18-4.48,0-2.92,1.91-4.63,4.32-4.63s4.2,1.82,4.2,4.48Zm-6.91,.09c0,1.91,1.1,3.35,2.65,3.35s2.65-1.42,2.65-3.39c0-1.48-.74-3.35-2.61-3.35s-2.68,1.73-2.68,3.38Z"/><path d="M152.33,117.39c0-.9-.02-1.64-.07-2.36h1.4l.09,1.44h.04c.43-.83,1.44-1.64,2.88-1.64,1.21,0,3.08,.72,3.08,3.71v5.2h-1.58v-5.02c0-1.4-.52-2.57-2.02-2.57-1.04,0-1.85,.74-2.12,1.62-.07,.2-.11,.47-.11,.74v5.24h-1.58v-6.36Z"/></g><g><path d="M62.22,119.68c.04,2.14,1.4,3.02,2.99,3.02,1.13,0,1.82-.2,2.41-.45l.27,1.13c-.56,.25-1.51,.54-2.9,.54-2.68,0-4.29-1.76-4.29-4.39s1.55-4.7,4.09-4.7c2.84,0,3.6,2.5,3.6,4.1,0,.32-.04,.58-.05,.74h-6.12Zm4.65-1.13c.02-1.01-.41-2.57-2.2-2.57-1.6,0-2.3,1.48-2.43,2.57h4.63Z"/><path d="M71.04,115.03l1.24,1.87c.32,.49,.59,.94,.88,1.42h.05c.29-.52,.58-.97,.86-1.44l1.22-1.85h1.71l-2.97,4.21,3.06,4.5h-1.8l-1.28-1.96c-.34-.5-.63-.99-.94-1.51h-.04c-.29,.52-.59,.99-.92,1.51l-1.26,1.96h-1.75l3.1-4.45-2.95-4.27h1.76Z"/><path d="M78.64,110.97h1.58v12.78h-1.58v-12.78Z"/><path d="M90.18,121.37c0,.9,.02,1.69,.07,2.38h-1.4l-.09-1.42h-.04c-.41,.7-1.33,1.62-2.88,1.62-1.37,0-3.01-.76-3.01-3.82v-5.1h1.58v4.83c0,1.66,.5,2.77,1.94,2.77,1.06,0,1.8-.74,2.09-1.44,.09-.23,.14-.52,.14-.81v-5.35h1.58v6.34Z"/><path d="M92.59,122.13c.47,.31,1.3,.63,2.09,.63,1.15,0,1.69-.58,1.69-1.3,0-.76-.45-1.17-1.62-1.6-1.57-.56-2.3-1.42-2.3-2.47,0-1.4,1.13-2.56,3.01-2.56,.88,0,1.66,.25,2.14,.54l-.4,1.15c-.34-.22-.97-.5-1.78-.5-.94,0-1.46,.54-1.46,1.19,0,.72,.52,1.04,1.66,1.48,1.51,.58,2.29,1.33,2.29,2.63,0,1.53-1.19,2.61-3.26,2.61-.95,0-1.84-.23-2.45-.59l.4-1.21Z"/><path d="M101.7,112.59c.02,.54-.38,.97-1.01,.97-.56,0-.95-.43-.95-.97s.41-.99,.99-.99,.97,.43,.97,.99Zm-1.76,11.16v-8.71h1.58v8.71h-1.58Z"/><path d="M104.76,115.03l1.71,4.9c.29,.79,.52,1.51,.7,2.23h.05c.2-.72,.45-1.44,.74-2.23l1.69-4.9h1.66l-3.42,8.71h-1.51l-3.31-8.71h1.69Z"/><path d="M113.5,119.68c.04,2.14,1.4,3.02,2.99,3.02,1.13,0,1.82-.2,2.41-.45l.27,1.13c-.56,.25-1.51,.54-2.9,.54-2.68,0-4.29-1.76-4.29-4.39s1.55-4.7,4.09-4.7c2.84,0,3.6,2.5,3.6,4.1,0,.32-.04,.58-.05,.74h-6.12Zm4.65-1.13c.02-1.01-.41-2.57-2.2-2.57-1.6,0-2.3,1.48-2.43,2.57h4.63Z"/></g></g><g><path class="cls-2" d="M350.45,170.99s-10.52-12.07-37.39-12.07-37.14,11.74-37.14,11.74"/><path class="cls-1" d="M252.02,188.76s13.83,12.07,49.14,12.07,48.82-11.74,48.82-11.74"/><rect class="cls-7" x="199.08" y="169.85" width="54.8" height="19.98"/><rect class="cls-4" x="254.11" y="169.85" width="22.97" height="19.98"/><rect class="cls-7" x="348.44" y="169.85" width="54.8" height="19.98"/><g><path class="cls-5" d="M243.17,181.6c.02,1.43,.94,2.01,1.99,2.01,.76,0,1.21-.13,1.61-.3l.18,.76c-.37,.17-1.01,.36-1.93,.36-1.79,0-2.85-1.18-2.85-2.93s1.03-3.13,2.72-3.13c1.9,0,2.4,1.67,2.4,2.73,0,.22-.02,.38-.04,.49h-4.08Zm3.09-.76c.01-.67-.28-1.71-1.46-1.71-1.07,0-1.54,.98-1.62,1.71h3.08Z"/><path class="cls-5" d="M250.55,177.5h-.02l-1.36,.73-.2-.8,1.7-.91h.9v7.8h-1.02v-6.81Z"/></g><g><path class="cls-5" d="M262.05,181.6c.02,1.43,.94,2.01,1.99,2.01,.76,0,1.21-.13,1.61-.3l.18,.76c-.37,.17-1.01,.36-1.93,.36-1.79,0-2.85-1.18-2.85-2.93s1.03-3.13,2.72-3.13c1.9,0,2.4,1.67,2.4,2.73,0,.22-.02,.38-.04,.49h-4.08Zm3.09-.76c.01-.67-.28-1.71-1.46-1.71-1.07,0-1.54,.98-1.62,1.71h3.08Z"/><path class="cls-5" d="M267.13,184.31v-.65l.83-.8c1.99-1.9,2.89-2.9,2.9-4.08,0-.79-.38-1.52-1.55-1.52-.71,0-1.3,.36-1.66,.66l-.34-.74c.54-.46,1.31-.79,2.21-.79,1.68,0,2.39,1.15,2.39,2.27,0,1.44-1.04,2.6-2.69,4.19l-.62,.58v.02h3.5v.88h-4.98Z"/></g><g><path class="cls-5" d="M350.43,183.23c.31,.2,.86,.42,1.39,.42,.77,0,1.13-.38,1.13-.86,0-.5-.3-.78-1.08-1.07-1.04-.37-1.54-.95-1.54-1.64,0-.94,.76-1.7,2-1.7,.59,0,1.1,.17,1.43,.36l-.26,.77c-.23-.14-.65-.34-1.19-.34-.62,0-.97,.36-.97,.79,0,.48,.35,.7,1.1,.98,1.01,.38,1.52,.89,1.52,1.75,0,1.02-.79,1.74-2.17,1.74-.64,0-1.22-.16-1.63-.4l.26-.8Z"/><path class="cls-5" d="M355.25,183.1c.3,.19,1,.49,1.73,.49,1.36,0,1.77-.86,1.76-1.51-.01-1.09-1-1.56-2.02-1.56h-.59v-.79h.59c.77,0,1.74-.4,1.74-1.32,0-.62-.4-1.18-1.37-1.18-.62,0-1.22,.28-1.56,.52l-.28-.77c.41-.3,1.2-.6,2.04-.6,1.54,0,2.23,.91,2.23,1.86,0,.8-.48,1.49-1.44,1.83v.02c.96,.19,1.74,.91,1.74,2,0,1.25-.97,2.34-2.84,2.34-.88,0-1.64-.28-2.03-.53l.29-.82Z"/></g><g><path d="M3.33,181.75l-1.26,3.82H.45l4.12-12.14h1.89l4.14,12.14h-1.67l-1.3-3.82H3.33Zm3.98-1.22l-1.19-3.49c-.27-.79-.45-1.51-.63-2.21h-.04c-.18,.72-.38,1.46-.61,2.2l-1.19,3.51h3.65Z"/><path d="M12.28,172.79h1.58v12.78h-1.58v-12.78Z"/><path d="M18.43,174.35v2.5h2.27v1.21h-2.27v4.7c0,1.08,.31,1.69,1.19,1.69,.41,0,.72-.05,.92-.11l.07,1.19c-.31,.13-.79,.22-1.4,.22-.74,0-1.33-.23-1.71-.67-.45-.47-.61-1.24-.61-2.27v-4.75h-1.35v-1.21h1.35v-2.09l1.55-.41Z"/><path d="M23.26,181.5c.04,2.14,1.4,3.02,2.99,3.02,1.13,0,1.82-.2,2.41-.45l.27,1.13c-.56,.25-1.51,.54-2.9,.54-2.68,0-4.29-1.76-4.29-4.39s1.55-4.7,4.09-4.7c2.84,0,3.6,2.5,3.6,4.1,0,.32-.04,.58-.05,.74h-6.12Zm4.65-1.13c.02-1.01-.41-2.57-2.2-2.57-1.6,0-2.3,1.48-2.43,2.57h4.63Z"/><path d="M31.39,179.58c0-1.03-.02-1.91-.07-2.72h1.39l.05,1.71h.07c.4-1.17,1.35-1.91,2.41-1.91,.18,0,.31,.02,.45,.05v1.49c-.16-.04-.32-.05-.54-.05-1.12,0-1.91,.85-2.12,2.03-.04,.22-.07,.47-.07,.74v4.65h-1.57v-6Z"/><path d="M37.35,179.22c0-.9-.02-1.64-.07-2.36h1.4l.09,1.44h.04c.43-.83,1.44-1.64,2.88-1.64,1.21,0,3.08,.72,3.08,3.71v5.2h-1.58v-5.02c0-1.4-.52-2.57-2.02-2.57-1.04,0-1.85,.74-2.12,1.62-.07,.2-.11,.47-.11,.74v5.24h-1.58v-6.36Z"/><path d="M52.17,185.57l-.13-1.1h-.05c-.49,.68-1.42,1.3-2.67,1.3-1.76,0-2.66-1.24-2.66-2.5,0-2.11,1.87-3.26,5.24-3.24v-.18c0-.72-.2-2.02-1.98-2.02-.81,0-1.66,.25-2.27,.65l-.36-1.04c.72-.47,1.76-.77,2.86-.77,2.67,0,3.31,1.82,3.31,3.56v3.26c0,.76,.04,1.49,.14,2.09h-1.44Zm-.23-4.45c-1.73-.04-3.69,.27-3.69,1.96,0,1.03,.68,1.51,1.49,1.51,1.13,0,1.85-.72,2.11-1.46,.05-.16,.09-.34,.09-.5v-1.51Z"/><path d="M57.85,174.35v2.5h2.27v1.21h-2.27v4.7c0,1.08,.31,1.69,1.19,1.69,.41,0,.72-.05,.92-.11l.07,1.19c-.31,.13-.79,.22-1.4,.22-.74,0-1.33-.23-1.71-.67-.45-.47-.61-1.24-.61-2.27v-4.75h-1.35v-1.21h1.35v-2.09l1.55-.41Z"/><path d="M63.67,174.41c.02,.54-.38,.97-1.01,.97-.56,0-.95-.43-.95-.97s.41-.99,.99-.99,.97,.43,.97,.99Zm-1.76,11.16v-8.71h1.58v8.71h-1.58Z"/><path d="M66.73,176.86l1.71,4.9c.29,.79,.52,1.51,.7,2.23h.05c.2-.72,.45-1.44,.74-2.23l1.69-4.9h1.66l-3.42,8.71h-1.51l-3.31-8.71h1.69Z"/><path d="M75.47,181.5c.04,2.14,1.4,3.02,2.99,3.02,1.13,0,1.82-.2,2.41-.45l.27,1.13c-.56,.25-1.51,.54-2.9,.54-2.68,0-4.29-1.76-4.29-4.39s1.55-4.7,4.09-4.7c2.84,0,3.6,2.5,3.6,4.1,0,.32-.04,.58-.05,.74h-6.12Zm4.65-1.13c.02-1.01-.41-2.57-2.2-2.57-1.6,0-2.3,1.48-2.43,2.57h4.63Z"/><path d="M93.91,175.2h-4.47l-.45,3.01c.27-.04,.52-.07,.95-.07,.9,0,1.8,.2,2.52,.63,.92,.52,1.67,1.53,1.67,3.01,0,2.29-1.82,4-4.36,4-1.28,0-2.36-.36-2.92-.72l.4-1.21c.49,.29,1.44,.65,2.5,.65,1.49,0,2.77-.97,2.77-2.54-.02-1.51-1.03-2.59-3.37-2.59-.67,0-1.19,.07-1.62,.13l.76-5.62h5.6v1.33Z"/><path d="M95.98,177.63c.41-1.51,1.19-3.46,1.67-4.29l1.01-.11c-.38,1.06-.86,2.92-1.06,4.21l-1.62,.18Z"/><path d="M103.99,183.95c.47,.31,1.3,.63,2.09,.63,1.15,0,1.69-.58,1.69-1.3,0-.76-.45-1.17-1.62-1.6-1.57-.56-2.3-1.42-2.3-2.47,0-1.4,1.13-2.56,3.01-2.56,.88,0,1.66,.25,2.14,.54l-.4,1.15c-.34-.22-.97-.5-1.78-.5-.94,0-1.46,.54-1.46,1.19,0,.72,.52,1.04,1.66,1.48,1.51,.58,2.29,1.33,2.29,2.63,0,1.53-1.19,2.61-3.26,2.61-.95,0-1.84-.23-2.45-.59l.4-1.21Z"/><path d="M111.33,179.7c0-1.12-.04-2.02-.07-2.85h1.42l.07,1.49h.04c.65-1.06,1.67-1.69,3.1-1.69,2.11,0,3.69,1.78,3.69,4.43,0,3.13-1.91,4.68-3.96,4.68-1.15,0-2.16-.5-2.68-1.37h-.04v4.74h-1.57v-9.43Zm1.57,2.32c0,.23,.04,.45,.07,.65,.29,1.1,1.24,1.85,2.38,1.85,1.67,0,2.65-1.37,2.65-3.37,0-1.75-.92-3.24-2.59-3.24-1.08,0-2.09,.77-2.4,1.96-.05,.2-.11,.43-.11,.65v1.49Z"/><path d="M121.57,172.79h1.58v12.78h-1.58v-12.78Z"/><path d="M127.58,174.41c.02,.54-.38,.97-1.01,.97-.56,0-.95-.43-.95-.97s.41-.99,.99-.99,.97,.43,.97,.99Zm-1.76,11.16v-8.71h1.58v8.71h-1.58Z"/><path d="M136.24,185.25c-.41,.22-1.33,.5-2.5,.5-2.63,0-4.34-1.78-4.34-4.45s1.84-4.63,4.68-4.63c.94,0,1.76,.23,2.2,.45l-.36,1.22c-.38-.22-.97-.41-1.84-.41-2,0-3.08,1.48-3.08,3.29,0,2.02,1.3,3.26,3.02,3.26,.9,0,1.49-.23,1.94-.43l.27,1.19Z"/><path d="M138.87,181.5c.04,2.14,1.4,3.02,2.99,3.02,1.13,0,1.82-.2,2.41-.45l.27,1.13c-.56,.25-1.51,.54-2.9,.54-2.68,0-4.29-1.76-4.29-4.39s1.55-4.7,4.09-4.7c2.84,0,3.6,2.5,3.6,4.1,0,.32-.04,.58-.05,.74h-6.12Zm4.65-1.13c.02-1.01-.41-2.57-2.2-2.57-1.6,0-2.3,1.48-2.43,2.57h4.63Z"/><path d="M151.18,180.12v1.17h-4.45v-1.17h4.45Z"/><path d="M152.82,183.95c.47,.31,1.3,.63,2.09,.63,1.15,0,1.69-.58,1.69-1.3,0-.76-.45-1.17-1.62-1.6-1.57-.56-2.3-1.42-2.3-2.47,0-1.4,1.13-2.56,3.01-2.56,.88,0,1.66,.25,2.14,.54l-.4,1.15c-.34-.22-.97-.5-1.78-.5-.94,0-1.46,.54-1.46,1.19,0,.72,.52,1.04,1.66,1.48,1.51,.58,2.29,1.33,2.29,2.63,0,1.53-1.19,2.61-3.26,2.61-.95,0-1.84-.23-2.45-.59l.4-1.21Z"/><path d="M161.93,174.41c.02,.54-.38,.97-1.01,.97-.56,0-.95-.43-.95-.97s.41-.99,.99-.99,.97,.43,.97,.99Zm-1.76,11.16v-8.71h1.58v8.71h-1.58Z"/><path d="M166.28,174.35v2.5h2.27v1.21h-2.27v4.7c0,1.08,.31,1.69,1.19,1.69,.41,0,.72-.05,.92-.11l.07,1.19c-.31,.13-.79,.22-1.4,.22-.74,0-1.33-.23-1.71-.67-.45-.47-.61-1.24-.61-2.27v-4.75h-1.35v-1.21h1.35v-2.09l1.55-.41Z"/><path d="M171.11,181.5c.04,2.14,1.4,3.02,2.99,3.02,1.13,0,1.82-.2,2.41-.45l.27,1.13c-.56,.25-1.51,.54-2.9,.54-2.68,0-4.29-1.76-4.29-4.39s1.55-4.7,4.09-4.7c2.84,0,3.6,2.5,3.6,4.1,0,.32-.04,.58-.05,.74h-6.12Zm4.65-1.13c.02-1.01-.41-2.57-2.2-2.57-1.6,0-2.3,1.48-2.43,2.57h4.63Z"/></g><g><path d="M504.28,181.77l-.84,2.54h-1.08l2.75-8.08h1.26l2.76,8.08h-1.12l-.86-2.54h-2.87Zm2.65-.82l-.79-2.33c-.18-.53-.3-1.01-.42-1.48h-.02c-.12,.48-.25,.97-.41,1.46l-.79,2.34h2.43Z"/><path d="M514.6,177.4h-2.97l-.3,2c.18-.02,.35-.05,.64-.05,.6,0,1.2,.13,1.68,.42,.61,.35,1.12,1.02,1.12,2,0,1.52-1.21,2.66-2.9,2.66-.85,0-1.57-.24-1.94-.48l.26-.8c.32,.19,.96,.43,1.67,.43,1,0,1.85-.65,1.85-1.69-.01-1.01-.68-1.73-2.24-1.73-.44,0-.79,.05-1.08,.08l.5-3.74h3.73v.89Z"/><path d="M529.75,181.6c.02,1.43,.94,2.01,1.99,2.01,.76,0,1.21-.13,1.61-.3l.18,.76c-.37,.17-1.01,.36-1.93,.36-1.79,0-2.85-1.18-2.85-2.93s1.03-3.13,2.72-3.13c1.9,0,2.4,1.67,2.4,2.73,0,.22-.02,.38-.04,.49h-4.08Zm3.09-.76c.01-.67-.28-1.71-1.46-1.71-1.07,0-1.54,.98-1.62,1.71h3.08Z"/><path d="M534.84,184.31v-.65l.83-.8c1.99-1.9,2.89-2.9,2.9-4.08,0-.79-.38-1.52-1.55-1.52-.71,0-1.3,.36-1.66,.66l-.34-.74c.54-.46,1.31-.79,2.21-.79,1.68,0,2.39,1.15,2.39,2.27,0,1.44-1.04,2.6-2.69,4.19l-.62,.58v.02h3.5v.88h-4.98Z"/><path d="M543.77,180.68v.78h-2.96v-.78h2.96Z"/><path d="M544.87,183.23c.31,.2,.86,.42,1.39,.42,.77,0,1.13-.38,1.13-.86,0-.5-.3-.78-1.08-1.07-1.04-.37-1.54-.95-1.54-1.64,0-.94,.76-1.7,2-1.7,.59,0,1.1,.17,1.43,.36l-.26,.77c-.23-.14-.65-.34-1.19-.34-.62,0-.97,.36-.97,.79,0,.48,.35,.7,1.1,.98,1.01,.38,1.52,.89,1.52,1.75,0,1.02-.79,1.74-2.17,1.74-.64,0-1.22-.16-1.63-.4l.26-.8Z"/><path d="M549.68,183.1c.3,.19,1,.49,1.73,.49,1.36,0,1.77-.86,1.76-1.51-.01-1.09-1-1.56-2.02-1.56h-.59v-.79h.59c.77,0,1.74-.4,1.74-1.32,0-.62-.4-1.18-1.37-1.18-.62,0-1.22,.28-1.56,.52l-.28-.77c.41-.3,1.2-.6,2.04-.6,1.54,0,2.23,.91,2.23,1.86,0,.8-.48,1.49-1.44,1.83v.02c.96,.19,1.74,.91,1.74,2,0,1.25-.97,2.34-2.84,2.34-.88,0-1.64-.28-2.03-.53l.29-.82Z"/><path d="M555.67,179.47c0-.44,.3-.76,.72-.76s.7,.31,.71,.76c0,.42-.28,.74-.72,.74-.42,0-.71-.32-.71-.74Zm0,4.23c0-.44,.3-.76,.72-.76s.7,.31,.71,.76c0,.42-.28,.74-.72,.74-.42,0-.71-.32-.71-.74Z"/><path d="M558.99,181.6c.02,1.43,.94,2.01,1.99,2.01,.76,0,1.21-.13,1.61-.3l.18,.76c-.37,.17-1.01,.36-1.93,.36-1.79,0-2.85-1.18-2.85-2.93s1.03-3.13,2.72-3.13c1.9,0,2.4,1.67,2.4,2.73,0,.22-.02,.38-.04,.49h-4.08Zm3.09-.76c.01-.67-.28-1.71-1.46-1.71-1.07,0-1.54,.98-1.62,1.71h3.08Z"/><path d="M566.37,177.5h-.02l-1.36,.73-.2-.8,1.7-.91h.9v7.8h-1.02v-6.81Z"/><path d="M573.02,180.68v.78h-2.96v-.78h2.96Z"/><path d="M574.11,183.23c.31,.2,.86,.42,1.39,.42,.77,0,1.13-.38,1.13-.86,0-.5-.3-.78-1.08-1.07-1.04-.37-1.54-.95-1.54-1.64,0-.94,.76-1.7,2-1.7,.59,0,1.1,.17,1.43,.36l-.26,.77c-.23-.14-.65-.34-1.19-.34-.62,0-.97,.36-.97,.79,0,.48,.35,.7,1.1,.98,1.01,.38,1.52,.89,1.52,1.75,0,1.02-.79,1.74-2.17,1.74-.64,0-1.22-.16-1.63-.4l.26-.8Z"/><path d="M578.92,183.1c.3,.19,1,.49,1.73,.49,1.36,0,1.77-.86,1.76-1.51-.01-1.09-1-1.56-2.02-1.56h-.59v-.79h.59c.77,0,1.74-.4,1.74-1.32,0-.62-.4-1.18-1.37-1.18-.62,0-1.22,.28-1.56,.52l-.28-.77c.41-.3,1.2-.6,2.04-.6,1.54,0,2.23,.91,2.23,1.86,0,.8-.48,1.49-1.44,1.83v.02c.96,.19,1.74,.91,1.74,2,0,1.25-.97,2.34-2.84,2.34-.88,0-1.64-.28-2.03-.53l.29-.82Z"/></g></g><g><path class="cls-2" d="M327.45,232.81s-10.52-12.07-37.39-12.07-37.14,11.74-37.14,11.74"/><path class="cls-1" d="M252.02,250.59s13.83,12.07,49.14,12.07,48.82-11.74,48.82-11.74"/><rect class="cls-7" x="199.08" y="231.67" width="54.8" height="19.98"/><rect class="cls-4" x="326.11" y="231.67" width="22.97" height="19.98"/><rect class="cls-7" x="348.44" y="231.67" width="54.8" height="19.98"/><g><path class="cls-5" d="M243.17,243.42c.02,1.43,.94,2.01,1.99,2.01,.76,0,1.21-.13,1.61-.3l.18,.76c-.37,.17-1.01,.36-1.93,.36-1.79,0-2.85-1.18-2.85-2.93s1.03-3.13,2.72-3.13c1.9,0,2.4,1.67,2.4,2.73,0,.22-.02,.38-.04,.49h-4.08Zm3.09-.76c.01-.67-.28-1.71-1.46-1.71-1.07,0-1.54,.98-1.62,1.71h3.08Z"/><path class="cls-5" d="M250.55,239.32h-.02l-1.36,.73-.2-.8,1.7-.91h.9v7.8h-1.02v-6.81Z"/></g><g><path class="cls-5" d="M329.31,245.05c.31,.2,.86,.42,1.39,.42,.77,0,1.13-.38,1.13-.86,0-.5-.3-.78-1.08-1.07-1.04-.37-1.54-.95-1.54-1.64,0-.94,.76-1.7,2-1.7,.59,0,1.1,.17,1.43,.36l-.26,.77c-.23-.14-.65-.34-1.19-.34-.62,0-.97,.36-.97,.79,0,.48,.35,.7,1.1,.98,1.01,.38,1.52,.89,1.52,1.75,0,1.02-.79,1.74-2.17,1.74-.64,0-1.22-.16-1.63-.4l.26-.8Z"/><path class="cls-5" d="M333.87,246.13v-.65l.83-.8c1.99-1.9,2.89-2.9,2.9-4.08,0-.79-.38-1.52-1.55-1.52-.71,0-1.3,.36-1.66,.66l-.34-.74c.54-.46,1.31-.79,2.21-.79,1.68,0,2.39,1.15,2.39,2.27,0,1.44-1.04,2.6-2.69,4.19l-.62,.58v.02h3.5v.88h-4.98Z"/></g><g><path class="cls-5" d="M350.43,245.05c.31,.2,.86,.42,1.39,.42,.77,0,1.13-.38,1.13-.86,0-.5-.3-.78-1.08-1.07-1.04-.37-1.54-.95-1.54-1.64,0-.94,.76-1.7,2-1.7,.59,0,1.1,.17,1.43,.36l-.26,.77c-.23-.14-.65-.34-1.19-.34-.62,0-.97,.36-.97,.79,0,.48,.35,.7,1.1,.98,1.01,.38,1.52,.89,1.52,1.75,0,1.02-.79,1.74-2.17,1.74-.64,0-1.22-.16-1.63-.4l.26-.8Z"/><path class="cls-5" d="M355.25,244.92c.3,.19,1,.49,1.73,.49,1.36,0,1.77-.86,1.76-1.51-.01-1.09-1-1.56-2.02-1.56h-.59v-.79h.59c.77,0,1.74-.4,1.74-1.32,0-.62-.4-1.18-1.37-1.18-.62,0-1.22,.28-1.56,.52l-.28-.77c.41-.3,1.2-.6,2.04-.6,1.54,0,2.23,.91,2.23,1.86,0,.8-.48,1.49-1.44,1.83v.02c.96,.19,1.74,.91,1.74,2,0,1.25-.97,2.34-2.84,2.34-.88,0-1.64-.28-2.03-.53l.29-.82Z"/></g><g><path d="M3.33,243.58l-1.26,3.82H.45l4.12-12.14h1.89l4.14,12.14h-1.67l-1.3-3.82H3.33Zm3.98-1.22l-1.19-3.49c-.27-.79-.45-1.51-.63-2.21h-.04c-.18,.72-.38,1.46-.61,2.2l-1.19,3.51h3.65Z"/><path d="M12.28,234.61h1.58v12.78h-1.58v-12.78Z"/><path d="M18.43,236.18v2.5h2.27v1.21h-2.27v4.7c0,1.08,.31,1.69,1.19,1.69,.41,0,.72-.05,.92-.11l.07,1.19c-.31,.13-.79,.22-1.4,.22-.74,0-1.33-.23-1.71-.67-.45-.47-.61-1.24-.61-2.27v-4.75h-1.35v-1.21h1.35v-2.09l1.55-.41Z"/><path d="M23.26,243.32c.04,2.14,1.4,3.02,2.99,3.02,1.13,0,1.82-.2,2.41-.45l.27,1.13c-.56,.25-1.51,.54-2.9,.54-2.68,0-4.29-1.76-4.29-4.39s1.55-4.7,4.09-4.7c2.84,0,3.6,2.5,3.6,4.1,0,.32-.04,.58-.05,.74h-6.12Zm4.65-1.13c.02-1.01-.41-2.57-2.2-2.57-1.6,0-2.3,1.48-2.43,2.57h4.63Z"/><path d="M31.39,241.4c0-1.03-.02-1.91-.07-2.72h1.39l.05,1.71h.07c.4-1.17,1.35-1.91,2.41-1.91,.18,0,.31,.02,.45,.05v1.49c-.16-.04-.32-.05-.54-.05-1.12,0-1.91,.85-2.12,2.03-.04,.22-.07,.47-.07,.74v4.65h-1.57v-6Z"/><path d="M37.35,241.04c0-.9-.02-1.64-.07-2.36h1.4l.09,1.44h.04c.43-.83,1.44-1.64,2.88-1.64,1.21,0,3.08,.72,3.08,3.71v5.2h-1.58v-5.02c0-1.4-.52-2.57-2.02-2.57-1.04,0-1.85,.74-2.12,1.62-.07,.2-.11,.47-.11,.74v5.24h-1.58v-6.36Z"/><path d="M52.17,247.39l-.13-1.1h-.05c-.49,.68-1.42,1.3-2.67,1.3-1.76,0-2.66-1.24-2.66-2.5,0-2.11,1.87-3.26,5.24-3.24v-.18c0-.72-.2-2.02-1.98-2.02-.81,0-1.66,.25-2.27,.65l-.36-1.04c.72-.47,1.76-.77,2.86-.77,2.67,0,3.31,1.82,3.31,3.56v3.26c0,.76,.04,1.49,.14,2.09h-1.44Zm-.23-4.45c-1.73-.04-3.69,.27-3.69,1.96,0,1.03,.68,1.51,1.49,1.51,1.13,0,1.85-.72,2.11-1.46,.05-.16,.09-.34,.09-.5v-1.51Z"/><path d="M57.85,236.18v2.5h2.27v1.21h-2.27v4.7c0,1.08,.31,1.69,1.19,1.69,.41,0,.72-.05,.92-.11l.07,1.19c-.31,.13-.79,.22-1.4,.22-.74,0-1.33-.23-1.71-.67-.45-.47-.61-1.24-.61-2.27v-4.75h-1.35v-1.21h1.35v-2.09l1.55-.41Z"/><path d="M63.67,236.23c.02,.54-.38,.97-1.01,.97-.56,0-.95-.43-.95-.97s.41-.99,.99-.99,.97,.43,.97,.99Zm-1.76,11.16v-8.71h1.58v8.71h-1.58Z"/><path d="M66.73,238.68l1.71,4.9c.29,.79,.52,1.51,.7,2.23h.05c.2-.72,.45-1.44,.74-2.23l1.69-4.9h1.66l-3.42,8.71h-1.51l-3.31-8.71h1.69Z"/><path d="M75.47,243.32c.04,2.14,1.4,3.02,2.99,3.02,1.13,0,1.82-.2,2.41-.45l.27,1.13c-.56,.25-1.51,.54-2.9,.54-2.68,0-4.29-1.76-4.29-4.39s1.55-4.7,4.09-4.7c2.84,0,3.6,2.5,3.6,4.1,0,.32-.04,.58-.05,.74h-6.12Zm4.65-1.13c.02-1.01-.41-2.57-2.2-2.57-1.6,0-2.3,1.48-2.43,2.57h4.63Z"/><path d="M87.3,245.58c.45,.29,1.49,.74,2.59,.74,2.03,0,2.66-1.3,2.65-2.27-.02-1.64-1.49-2.34-3.02-2.34h-.88v-1.19h.88c1.15,0,2.61-.59,2.61-1.98,0-.94-.59-1.76-2.05-1.76-.94,0-1.84,.41-2.34,.77l-.41-1.15c.61-.45,1.8-.9,3.06-.9,2.3,0,3.35,1.37,3.35,2.79,0,1.21-.72,2.23-2.16,2.75v.04c1.44,.29,2.61,1.37,2.61,3.01,0,1.87-1.46,3.51-4.27,3.51-1.31,0-2.47-.41-3.04-.79l.43-1.22Z"/><path d="M95.98,239.45c.41-1.51,1.19-3.46,1.67-4.29l1.01-.11c-.38,1.06-.86,2.92-1.06,4.21l-1.62,.18Z"/><path d="M103.99,245.77c.47,.31,1.3,.63,2.09,.63,1.15,0,1.69-.58,1.69-1.3,0-.76-.45-1.17-1.62-1.6-1.57-.56-2.3-1.42-2.3-2.47,0-1.4,1.13-2.56,3.01-2.56,.88,0,1.66,.25,2.14,.54l-.4,1.15c-.34-.22-.97-.5-1.78-.5-.94,0-1.46,.54-1.46,1.19,0,.72,.52,1.04,1.66,1.48,1.51,.58,2.29,1.33,2.29,2.63,0,1.53-1.19,2.61-3.26,2.61-.95,0-1.84-.23-2.45-.59l.4-1.21Z"/><path d="M111.33,241.52c0-1.12-.04-2.02-.07-2.85h1.42l.07,1.49h.04c.65-1.06,1.67-1.69,3.1-1.69,2.11,0,3.69,1.78,3.69,4.43,0,3.13-1.91,4.68-3.96,4.68-1.15,0-2.16-.5-2.68-1.37h-.04v4.74h-1.57v-9.43Zm1.57,2.32c0,.23,.04,.45,.07,.65,.29,1.1,1.24,1.85,2.38,1.85,1.67,0,2.65-1.37,2.65-3.37,0-1.75-.92-3.24-2.59-3.24-1.08,0-2.09,.77-2.4,1.96-.05,.2-.11,.43-.11,.65v1.49Z"/><path d="M121.57,234.61h1.58v12.78h-1.58v-12.78Z"/><path d="M127.58,236.23c.02,.54-.38,.97-1.01,.97-.56,0-.95-.43-.95-.97s.41-.99,.99-.99,.97,.43,.97,.99Zm-1.76,11.16v-8.71h1.58v8.71h-1.58Z"/><path d="M136.24,247.07c-.41,.22-1.33,.5-2.5,.5-2.63,0-4.34-1.78-4.34-4.45s1.84-4.63,4.68-4.63c.94,0,1.76,.23,2.2,.45l-.36,1.22c-.38-.22-.97-.41-1.84-.41-2,0-3.08,1.48-3.08,3.29,0,2.02,1.3,3.26,3.02,3.26,.9,0,1.49-.23,1.94-.43l.27,1.19Z"/><path d="M138.87,243.32c.04,2.14,1.4,3.02,2.99,3.02,1.13,0,1.82-.2,2.41-.45l.27,1.13c-.56,.25-1.51,.54-2.9,.54-2.68,0-4.29-1.76-4.29-4.39s1.55-4.7,4.09-4.7c2.84,0,3.6,2.5,3.6,4.1,0,.32-.04,.58-.05,.74h-6.12Zm4.65-1.13c.02-1.01-.41-2.57-2.2-2.57-1.6,0-2.3,1.48-2.43,2.57h4.63Z"/><path d="M151.18,241.94v1.17h-4.45v-1.17h4.45Z"/><path d="M152.82,245.77c.47,.31,1.3,.63,2.09,.63,1.15,0,1.69-.58,1.69-1.3,0-.76-.45-1.17-1.62-1.6-1.57-.56-2.3-1.42-2.3-2.47,0-1.4,1.13-2.56,3.01-2.56,.88,0,1.66,.25,2.14,.54l-.4,1.15c-.34-.22-.97-.5-1.78-.5-.94,0-1.46,.54-1.46,1.19,0,.72,.52,1.04,1.66,1.48,1.51,.58,2.29,1.33,2.29,2.63,0,1.53-1.19,2.61-3.26,2.61-.95,0-1.84-.23-2.45-.59l.4-1.21Z"/><path d="M161.93,236.23c.02,.54-.38,.97-1.01,.97-.56,0-.95-.43-.95-.97s.41-.99,.99-.99,.97,.43,.97,.99Zm-1.76,11.16v-8.71h1.58v8.71h-1.58Z"/><path d="M166.28,236.18v2.5h2.27v1.21h-2.27v4.7c0,1.08,.31,1.69,1.19,1.69,.41,0,.72-.05,.92-.11l.07,1.19c-.31,.13-.79,.22-1.4,.22-.74,0-1.33-.23-1.71-.67-.45-.47-.61-1.24-.61-2.27v-4.75h-1.35v-1.21h1.35v-2.09l1.55-.41Z"/><path d="M171.11,243.32c.04,2.14,1.4,3.02,2.99,3.02,1.13,0,1.82-.2,2.41-.45l.27,1.13c-.56,.25-1.51,.54-2.9,.54-2.68,0-4.29-1.76-4.29-4.39s1.55-4.7,4.09-4.7c2.84,0,3.6,2.5,3.6,4.1,0,.32-.04,.58-.05,.74h-6.12Zm4.65-1.13c.02-1.01-.41-2.57-2.2-2.57-1.6,0-2.3,1.48-2.43,2.57h4.63Z"/></g><g><path d="M504.28,243.59l-.84,2.54h-1.08l2.75-8.08h1.26l2.76,8.08h-1.12l-.86-2.54h-2.87Zm2.65-.82l-.79-2.33c-.18-.53-.3-1.01-.42-1.48h-.02c-.12,.48-.25,.97-.41,1.46l-.79,2.34h2.43Z"/><path d="M510.2,244.92c.3,.19,1,.49,1.73,.49,1.36,0,1.77-.86,1.76-1.51-.01-1.09-1-1.56-2.02-1.56h-.59v-.79h.59c.77,0,1.74-.4,1.74-1.32,0-.62-.4-1.18-1.37-1.18-.62,0-1.22,.28-1.56,.52l-.28-.77c.41-.3,1.2-.6,2.04-.6,1.54,0,2.23,.91,2.23,1.86,0,.8-.48,1.49-1.44,1.83v.02c.96,.19,1.74,.91,1.74,2,0,1.25-.97,2.34-2.84,2.34-.88,0-1.64-.28-2.03-.53l.29-.82Z"/><path d="M529.75,243.42c.02,1.43,.94,2.01,1.99,2.01,.76,0,1.21-.13,1.61-.3l.18,.76c-.37,.17-1.01,.36-1.93,.36-1.79,0-2.85-1.18-2.85-2.93s1.03-3.13,2.72-3.13c1.9,0,2.4,1.67,2.4,2.73,0,.22-.02,.38-.04,.49h-4.08Zm3.09-.76c.01-.67-.28-1.71-1.46-1.71-1.07,0-1.54,.98-1.62,1.71h3.08Z"/><path d="M537.13,239.32h-.02l-1.36,.73-.2-.8,1.7-.91h.9v7.8h-1.02v-6.81Z"/><path d="M543.77,242.5v.78h-2.96v-.78h2.96Z"/><path d="M544.87,245.05c.31,.2,.86,.42,1.39,.42,.77,0,1.13-.38,1.13-.86,0-.5-.3-.78-1.08-1.07-1.04-.37-1.54-.95-1.54-1.64,0-.94,.76-1.7,2-1.7,.59,0,1.1,.17,1.43,.36l-.26,.77c-.23-.14-.65-.34-1.19-.34-.62,0-.97,.36-.97,.79,0,.48,.35,.7,1.1,.98,1.01,.38,1.52,.89,1.52,1.75,0,1.02-.79,1.74-2.17,1.74-.64,0-1.22-.16-1.63-.4l.26-.8Z"/><path d="M549.43,246.13v-.65l.83-.8c1.99-1.9,2.89-2.9,2.9-4.08,0-.79-.38-1.52-1.55-1.52-.71,0-1.3,.36-1.66,.66l-.34-.74c.54-.46,1.31-.79,2.21-.79,1.68,0,2.39,1.15,2.39,2.27,0,1.44-1.04,2.6-2.69,4.19l-.62,.58v.02h3.5v.88h-4.98Z"/><path d="M555.67,241.29c0-.44,.3-.76,.72-.76s.7,.31,.71,.76c0,.42-.28,.74-.72,.74-.42,0-.71-.32-.71-.74Zm0,4.23c0-.44,.3-.76,.72-.76s.7,.31,.71,.76c0,.42-.28,.74-.72,.74-.42,0-.71-.32-.71-.74Z"/><path d="M558.99,243.42c.02,1.43,.94,2.01,1.99,2.01,.76,0,1.21-.13,1.61-.3l.18,.76c-.37,.17-1.01,.36-1.93,.36-1.79,0-2.85-1.18-2.85-2.93s1.03-3.13,2.72-3.13c1.9,0,2.4,1.67,2.4,2.73,0,.22-.02,.38-.04,.49h-4.08Zm3.09-.76c.01-.67-.28-1.71-1.46-1.71-1.07,0-1.54,.98-1.62,1.71h3.08Z"/><path d="M566.37,239.32h-.02l-1.36,.73-.2-.8,1.7-.91h.9v7.8h-1.02v-6.81Z"/><path d="M573.02,242.5v.78h-2.96v-.78h2.96Z"/><path d="M574.11,245.05c.31,.2,.86,.42,1.39,.42,.77,0,1.13-.38,1.13-.86,0-.5-.3-.78-1.08-1.07-1.04-.37-1.54-.95-1.54-1.64,0-.94,.76-1.7,2-1.7,.59,0,1.1,.17,1.43,.36l-.26,.77c-.23-.14-.65-.34-1.19-.34-.62,0-.97,.36-.97,.79,0,.48,.35,.7,1.1,.98,1.01,.38,1.52,.89,1.52,1.75,0,1.02-.79,1.74-2.17,1.74-.64,0-1.22-.16-1.63-.4l.26-.8Z"/><path d="M578.92,244.92c.3,.19,1,.49,1.73,.49,1.36,0,1.77-.86,1.76-1.51-.01-1.09-1-1.56-2.02-1.56h-.59v-.79h.59c.77,0,1.74-.4,1.74-1.32,0-.62-.4-1.18-1.37-1.18-.62,0-1.22,.28-1.56,.52l-.28-.77c.41-.3,1.2-.6,2.04-.6,1.54,0,2.23,.91,2.23,1.86,0,.8-.48,1.49-1.44,1.83v.02c.96,.19,1.74,.91,1.74,2,0,1.25-.97,2.34-2.84,2.34-.88,0-1.64-.28-2.03-.53l.29-.82Z"/></g></g><g><path class="cls-1" d="M252.02,313.47s13.83,12.07,49.14,12.07,48.82-11.74,48.82-11.74"/><rect class="cls-7" x="199.08" y="294.56" width="54.8" height="19.98"/><rect class="cls-4" x="253.88" y="294.56" width="95.2" height="19.98"/><rect class="cls-7" x="348.44" y="294.56" width="54.8" height="19.98"/><g><path class="cls-5" d="M243.17,306.31c.02,1.43,.94,2.01,1.99,2.01,.76,0,1.21-.13,1.61-.3l.18,.76c-.37,.17-1.01,.36-1.93,.36-1.79,0-2.85-1.18-2.85-2.93s1.03-3.13,2.72-3.13c1.9,0,2.4,1.67,2.4,2.73,0,.22-.02,.38-.04,.49h-4.08Zm3.09-.76c.01-.67-.28-1.71-1.46-1.71-1.07,0-1.54,.98-1.62,1.71h3.08Z"/><path class="cls-5" d="M250.55,302.21h-.02l-1.36,.73-.2-.8,1.7-.91h.9v7.8h-1.02v-6.81Z"/></g><g><path class="cls-5" d="M350.31,307.94c.31,.2,.86,.42,1.39,.42,.77,0,1.13-.38,1.13-.86,0-.5-.3-.78-1.08-1.07-1.04-.37-1.54-.95-1.54-1.64,0-.94,.76-1.7,2-1.7,.59,0,1.1,.17,1.43,.36l-.26,.77c-.23-.14-.65-.34-1.19-.34-.62,0-.97,.36-.97,.79,0,.48,.35,.7,1.1,.98,1.01,.38,1.52,.89,1.52,1.75,0,1.02-.79,1.74-2.17,1.74-.64,0-1.22-.16-1.63-.4l.26-.8Z"/><path class="cls-5" d="M354.87,309.02v-.65l.83-.8c1.99-1.9,2.89-2.9,2.9-4.08,0-.79-.38-1.52-1.55-1.52-.71,0-1.3,.36-1.66,.66l-.34-.74c.54-.46,1.31-.79,2.21-.79,1.68,0,2.39,1.15,2.39,2.27,0,1.44-1.04,2.6-2.69,4.19l-.62,.58v.02h3.5v.88h-4.98Z"/></g><g><path class="cls-5" d="M392.17,306.31c.02,1.43,.94,2.01,1.99,2.01,.76,0,1.21-.13,1.61-.3l.18,.76c-.37,.17-1.01,.36-1.93,.36-1.79,0-2.85-1.18-2.85-2.93s1.03-3.13,2.72-3.13c1.9,0,2.4,1.67,2.4,2.73,0,.22-.02,.38-.04,.49h-4.08Zm3.09-.76c.01-.67-.28-1.71-1.46-1.71-1.07,0-1.54,.98-1.62,1.71h3.08Z"/><path class="cls-5" d="M397.25,309.02v-.65l.83-.8c1.99-1.9,2.89-2.9,2.9-4.08,0-.79-.38-1.52-1.55-1.52-.71,0-1.3,.36-1.66,.66l-.34-.74c.54-.46,1.31-.79,2.21-.79,1.68,0,2.39,1.15,2.39,2.27,0,1.44-1.04,2.6-2.69,4.19l-.62,.58v.02h3.5v.88h-4.98Z"/></g><g><path d="M1.37,298.31c.79-.16,1.93-.25,3.01-.25,1.67,0,2.75,.31,3.51,.99,.61,.54,.95,1.37,.95,2.3,0,1.6-1.01,2.67-2.29,3.1v.05c.94,.32,1.49,1.19,1.78,2.45,.4,1.69,.68,2.86,.94,3.33h-1.62c-.2-.34-.47-1.39-.81-2.9-.36-1.67-1.01-2.3-2.43-2.36h-1.48v5.26H1.37v-11.97Zm1.57,5.53h1.6c1.67,0,2.74-.92,2.74-2.3,0-1.57-1.13-2.25-2.79-2.27-.76,0-1.3,.07-1.55,.14v4.43Z"/><path d="M11.95,306.21c.04,2.14,1.4,3.02,2.99,3.02,1.13,0,1.82-.2,2.41-.45l.27,1.13c-.56,.25-1.51,.54-2.9,.54-2.68,0-4.29-1.76-4.29-4.39s1.55-4.7,4.09-4.7c2.84,0,3.6,2.5,3.6,4.1,0,.32-.04,.58-.05,.74h-6.12Zm4.65-1.13c.02-1.01-.41-2.57-2.2-2.57-1.6,0-2.3,1.48-2.43,2.57h4.63Z"/><path d="M22,299.06v2.5h2.27v1.21h-2.27v4.7c0,1.08,.31,1.69,1.19,1.69,.41,0,.72-.05,.92-.11l.07,1.19c-.31,.13-.79,.22-1.4,.22-.74,0-1.33-.23-1.71-.67-.45-.47-.61-1.24-.61-2.27v-4.75h-1.35v-1.21h1.35v-2.09l1.55-.41Z"/><path d="M30.87,310.28l-.13-1.1h-.05c-.49,.68-1.42,1.3-2.67,1.3-1.76,0-2.66-1.24-2.66-2.5,0-2.11,1.87-3.26,5.24-3.24v-.18c0-.72-.2-2.02-1.98-2.02-.81,0-1.66,.25-2.27,.65l-.36-1.04c.72-.47,1.76-.77,2.86-.77,2.67,0,3.31,1.82,3.31,3.56v3.26c0,.76,.04,1.49,.14,2.09h-1.44Zm-.23-4.45c-1.73-.04-3.69,.27-3.69,1.96,0,1.03,.68,1.51,1.49,1.51,1.13,0,1.85-.72,2.11-1.46,.05-.16,.09-.34,.09-.5v-1.51Z"/><path d="M36.49,299.12c.02,.54-.38,.97-1.01,.97-.56,0-.95-.43-.95-.97s.41-.99,.99-.99,.97,.43,.97,.99Zm-1.76,11.16v-8.71h1.58v8.71h-1.58Z"/><path d="M38.93,303.92c0-.9-.02-1.64-.07-2.36h1.4l.09,1.44h.04c.43-.83,1.44-1.64,2.88-1.64,1.21,0,3.08,.72,3.08,3.71v5.2h-1.58v-5.02c0-1.4-.52-2.57-2.02-2.57-1.04,0-1.85,.74-2.12,1.62-.07,.2-.11,.47-.11,.74v5.24h-1.58v-6.36Z"/><path d="M49.81,306.21c.04,2.14,1.4,3.02,2.99,3.02,1.13,0,1.82-.2,2.41-.45l.27,1.13c-.56,.25-1.51,.54-2.9,.54-2.68,0-4.29-1.76-4.29-4.39s1.55-4.7,4.09-4.7c2.84,0,3.6,2.5,3.6,4.1,0,.32-.04,.58-.05,.74h-6.12Zm4.65-1.13c.02-1.01-.41-2.57-2.2-2.57-1.6,0-2.3,1.48-2.43,2.57h4.63Z"/><path d="M65.47,297.5v10.53c0,.77,.02,1.66,.07,2.25h-1.42l-.07-1.51h-.04c-.49,.97-1.55,1.71-2.97,1.71-2.11,0-3.73-1.78-3.73-4.43-.02-2.9,1.78-4.68,3.91-4.68,1.33,0,2.23,.63,2.63,1.33h.04v-5.2h1.58Zm-1.58,7.62c0-.2-.02-.47-.07-.67-.23-1.01-1.1-1.84-2.29-1.84-1.64,0-2.61,1.44-2.61,3.37,0,1.76,.86,3.22,2.57,3.22,1.06,0,2.03-.7,2.32-1.89,.05-.22,.07-.43,.07-.68v-1.51Z"/></g><g><path d="M502.98,301.04c.53-.11,1.28-.17,2-.17,1.12,0,1.83,.2,2.34,.66,.41,.36,.64,.91,.64,1.54,0,1.07-.67,1.77-1.52,2.06v.04c.62,.22,1,.79,1.19,1.63,.26,1.13,.46,1.91,.62,2.22h-1.08c-.13-.23-.31-.92-.54-1.93-.24-1.12-.67-1.54-1.62-1.57h-.98v3.5h-1.04v-7.98Zm1.04,3.68h1.07c1.12,0,1.82-.61,1.82-1.54,0-1.04-.76-1.5-1.86-1.51-.5,0-.86,.05-1.03,.1v2.95Z"/><path d="M510.48,300.94v8.08h-1.04v-8.08h1.04Z"/><path d="M527.38,307.94c.31,.2,.86,.42,1.39,.42,.77,0,1.13-.38,1.13-.86,0-.5-.3-.78-1.08-1.07-1.04-.37-1.54-.95-1.54-1.64,0-.94,.76-1.7,2-1.7,.59,0,1.1,.17,1.43,.36l-.26,.77c-.23-.14-.65-.34-1.19-.34-.62,0-.97,.36-.97,.79,0,.48,.35,.7,1.1,.98,1.01,.38,1.52,.89,1.52,1.75,0,1.02-.79,1.74-2.17,1.74-.64,0-1.22-.16-1.63-.4l.26-.8Z"/><path d="M534.24,302.21h-.02l-1.36,.73-.2-.8,1.7-.91h.9v7.8h-1.02v-6.81Z"/><path d="M538.18,304.17c0-.44,.3-.76,.72-.76s.7,.31,.71,.76c0,.42-.28,.74-.72,.74-.42,0-.71-.32-.71-.74Zm0,4.23c0-.44,.3-.76,.72-.76s.7,.31,.71,.76c0,.42-.28,.74-.72,.74-.42,0-.71-.32-.71-.74Z"/><path d="M541.51,306.31c.02,1.43,.94,2.01,1.99,2.01,.76,0,1.21-.13,1.61-.3l.18,.76c-.37,.17-1.01,.36-1.93,.36-1.79,0-2.85-1.18-2.85-2.93s1.03-3.13,2.72-3.13c1.9,0,2.4,1.67,2.4,2.73,0,.22-.02,.38-.04,.49h-4.08Zm3.09-.76c.01-.67-.28-1.71-1.46-1.71-1.07,0-1.54,.98-1.62,1.71h3.08Z"/><path d="M548.89,302.21h-.02l-1.36,.73-.2-.8,1.7-.91h.9v7.8h-1.02v-6.81Z"/><path d="M555.53,305.39v.78h-2.96v-.78h2.96Z"/><path d="M556.63,307.94c.31,.2,.86,.42,1.39,.42,.77,0,1.13-.38,1.13-.86,0-.5-.3-.78-1.08-1.07-1.04-.37-1.54-.95-1.54-1.64,0-.94,.76-1.7,2-1.7,.59,0,1.1,.17,1.43,.36l-.26,.77c-.23-.14-.65-.34-1.19-.34-.62,0-.97,.36-.97,.79,0,.48,.35,.7,1.1,.98,1.01,.38,1.52,.89,1.52,1.75,0,1.02-.79,1.74-2.17,1.74-.64,0-1.22-.16-1.63-.4l.26-.8Z"/><path d="M561.19,309.02v-.65l.83-.8c1.99-1.9,2.89-2.9,2.9-4.08,0-.79-.38-1.52-1.55-1.52-.71,0-1.3,.36-1.66,.66l-.34-.74c.54-.46,1.31-.79,2.21-.79,1.68,0,2.39,1.15,2.39,2.27,0,1.44-1.04,2.6-2.69,4.19l-.62,.58v.02h3.5v.88h-4.98Z"/><path d="M570.13,305.39v.78h-2.96v-.78h2.96Z"/><path d="M572.17,306.31c.02,1.43,.94,2.01,1.99,2.01,.76,0,1.21-.13,1.61-.3l.18,.76c-.37,.17-1.01,.36-1.93,.36-1.79,0-2.85-1.18-2.85-2.93s1.03-3.13,2.72-3.13c1.9,0,2.4,1.67,2.4,2.73,0,.22-.02,.38-.04,.49h-4.08Zm3.09-.76c.01-.67-.28-1.71-1.46-1.71-1.07,0-1.54,.98-1.62,1.71h3.08Z"/><path d="M577.25,309.02v-.65l.83-.8c1.99-1.9,2.89-2.9,2.9-4.08,0-.79-.38-1.52-1.55-1.52-.71,0-1.3,.36-1.66,.66l-.34-.74c.54-.46,1.31-.79,2.21-.79,1.68,0,2.39,1.15,2.39,2.27,0,1.44-1.04,2.6-2.69,4.19l-.62,.58v.02h3.5v.88h-4.98Z"/></g><g><path class="cls-5" d="M201.31,307.94c.31,.2,.86,.42,1.39,.42,.77,0,1.13-.38,1.13-.86,0-.5-.3-.78-1.08-1.07-1.04-.37-1.54-.95-1.54-1.64,0-.94,.76-1.7,2-1.7,.59,0,1.1,.17,1.43,.36l-.26,.77c-.23-.14-.65-.34-1.19-.34-.62,0-.97,.36-.97,.79,0,.48,.35,.7,1.1,.98,1.01,.38,1.52,.89,1.52,1.75,0,1.02-.79,1.74-2.17,1.74-.64,0-1.22-.16-1.63-.4l.26-.8Z"/><path class="cls-5" d="M208.16,302.21h-.02l-1.36,.73-.2-.8,1.7-.91h.9v7.8h-1.02v-6.81Z"/></g><g><path d="M73.72,299.12c.02,.54-.38,.97-1.01,.97-.56,0-.95-.43-.95-.97s.41-.99,.99-.99,.97,.43,.97,.99Zm-1.76,11.16v-8.71h1.58v8.71h-1.58Z"/><path d="M76.17,303.92c0-.9-.02-1.64-.07-2.36h1.4l.09,1.44h.04c.43-.83,1.44-1.64,2.88-1.64,1.21,0,3.08,.72,3.08,3.71v5.2h-1.58v-5.02c0-1.4-.52-2.57-2.02-2.57-1.04,0-1.85,.74-2.12,1.62-.07,.2-.11,.47-.11,.74v5.24h-1.58v-6.36Z"/><path d="M88,299.06v2.5h2.27v1.21h-2.27v4.7c0,1.08,.31,1.69,1.19,1.69,.41,0,.72-.05,.92-.11l.07,1.19c-.31,.13-.79,.22-1.4,.22-.74,0-1.33-.23-1.71-.67-.45-.47-.61-1.24-.61-2.27v-4.75h-1.35v-1.21h1.35v-2.09l1.55-.41Z"/><path d="M92.05,304.28c0-1.03-.02-1.91-.07-2.72h1.39l.05,1.71h.07c.4-1.17,1.35-1.91,2.41-1.91,.18,0,.31,.02,.45,.05v1.49c-.16-.04-.32-.05-.54-.05-1.12,0-1.91,.85-2.12,2.03-.04,.22-.07,.47-.07,.74v4.65h-1.57v-6Z"/><path d="M105.64,305.85c0,3.22-2.23,4.63-4.34,4.63-2.36,0-4.18-1.73-4.18-4.48,0-2.92,1.91-4.63,4.32-4.63s4.2,1.82,4.2,4.48Zm-6.91,.09c0,1.91,1.1,3.35,2.65,3.35s2.65-1.42,2.65-3.39c0-1.48-.74-3.35-2.61-3.35s-2.68,1.73-2.68,3.38Z"/><path d="M107.63,303.92c0-.9-.02-1.64-.07-2.36h1.4l.09,1.44h.04c.43-.83,1.44-1.64,2.88-1.64,1.21,0,3.08,.72,3.08,3.71v5.2h-1.58v-5.02c0-1.4-.52-2.57-2.02-2.57-1.04,0-1.85,.74-2.12,1.62-.07,.2-.11,.47-.11,.74v5.24h-1.58v-6.36Z"/></g></g><g><path class="cls-1" d="M327.45,375.29s3.18,12.07,11.3,12.07,11.22-11.74,11.22-11.74"/><path class="cls-2" d="M350.17,357.52s-13.83-12.07-49.16-12.07-48.83,11.74-48.83,11.74"/><rect class="cls-4" x="199.08" y="356.38" width="54.8" height="19.98"/><rect class="cls-6" x="273.76" y="356.38" width="54.8" height="19.98"/><g><path class="cls-5" d="M243.17,368.13c.02,1.43,.94,2.01,1.99,2.01,.76,0,1.21-.13,1.61-.3l.18,.76c-.37,.17-1.01,.36-1.93,.36-1.79,0-2.85-1.18-2.85-2.93s1.03-3.13,2.72-3.13c1.9,0,2.4,1.67,2.4,2.73,0,.22-.02,.38-.04,.49h-4.08Zm3.09-.76c.01-.67-.28-1.71-1.46-1.71-1.07,0-1.54,.98-1.62,1.71h3.08Z"/><path class="cls-5" d="M250.55,364.03h-.02l-1.36,.73-.2-.8,1.7-.91h.9v7.8h-1.02v-6.81Z"/></g><g><path class="cls-5" d="M276.18,370.22c.31,.2,.86,.42,1.39,.42,.77,0,1.13-.38,1.13-.86,0-.5-.3-.78-1.08-1.07-1.04-.37-1.54-.95-1.54-1.64,0-.94,.76-1.7,2-1.7,.59,0,1.1,.17,1.43,.36l-.26,.77c-.23-.14-.65-.34-1.19-.34-.62,0-.97,.36-.97,.79,0,.48,.35,.7,1.1,.98,1.01,.38,1.52,.89,1.52,1.75,0,1.02-.79,1.74-2.17,1.74-.64,0-1.22-.16-1.63-.4l.26-.8Z"/><path class="cls-5" d="M280.74,371.3v-.65l.83-.8c1.99-1.9,2.89-2.9,2.9-4.08,0-.79-.38-1.52-1.55-1.52-.71,0-1.3,.36-1.66,.66l-.34-.74c.54-.46,1.31-.79,2.21-.79,1.68,0,2.39,1.15,2.39,2.27,0,1.44-1.04,2.6-2.69,4.19l-.62,.58v.02h3.5v.88h-4.98Z"/></g><g><path class="cls-5" d="M315.92,368.58c.02,1.43,.94,2.01,1.99,2.01,.76,0,1.21-.13,1.61-.3l.18,.76c-.37,.17-1.01,.36-1.93,.36-1.79,0-2.85-1.18-2.85-2.93s1.03-3.13,2.72-3.13c1.9,0,2.4,1.67,2.4,2.73,0,.22-.02,.38-.04,.49h-4.08Zm3.09-.76c.01-.67-.28-1.71-1.46-1.71-1.07,0-1.54,.98-1.62,1.71h3.08Z"/><path class="cls-5" d="M321,371.3v-.65l.83-.8c1.99-1.9,2.89-2.9,2.9-4.08,0-.79-.38-1.52-1.55-1.52-.71,0-1.3,.36-1.66,.66l-.34-.74c.54-.46,1.31-.79,2.21-.79,1.68,0,2.39,1.15,2.39,2.27,0,1.44-1.04,2.6-2.69,4.19l-.62,.58v.02h3.5v.88h-4.98Z"/></g><g><path d="M5.7,368.29l-1.26,3.82h-1.62l4.12-12.14h1.89l4.14,12.14h-1.67l-1.3-3.82H5.7Zm3.98-1.22l-1.19-3.49c-.27-.79-.45-1.51-.63-2.21h-.04c-.18,.72-.38,1.46-.61,2.2l-1.19,3.51h3.65Z"/><path d="M14.65,359.32h1.58v12.78h-1.58v-12.78Z"/><path d="M20.81,360.89v2.5h2.27v1.21h-2.27v4.7c0,1.08,.31,1.69,1.19,1.69,.41,0,.72-.05,.92-.11l.07,1.19c-.31,.13-.79,.22-1.4,.22-.74,0-1.33-.23-1.71-.67-.45-.47-.61-1.24-.61-2.27v-4.75h-1.35v-1.21h1.35v-2.09l1.55-.41Z"/><path d="M25.63,368.03c.04,2.14,1.4,3.02,2.99,3.02,1.13,0,1.82-.2,2.41-.45l.27,1.13c-.56,.25-1.51,.54-2.9,.54-2.68,0-4.29-1.76-4.29-4.39s1.55-4.7,4.09-4.7c2.84,0,3.6,2.5,3.6,4.1,0,.32-.04,.58-.05,.74h-6.12Zm4.65-1.13c.02-1.01-.41-2.57-2.2-2.57-1.6,0-2.3,1.48-2.43,2.57h4.63Z"/><path d="M33.77,366.11c0-1.03-.02-1.91-.07-2.72h1.39l.05,1.71h.07c.4-1.17,1.35-1.91,2.41-1.91,.18,0,.31,.02,.45,.05v1.49c-.16-.04-.32-.05-.54-.05-1.12,0-1.91,.85-2.12,2.03-.04,.22-.07,.47-.07,.74v4.65h-1.57v-6Z"/><path d="M39.72,365.75c0-.9-.02-1.64-.07-2.36h1.4l.09,1.44h.04c.43-.83,1.44-1.64,2.88-1.64,1.21,0,3.08,.72,3.08,3.71v5.2h-1.58v-5.02c0-1.4-.52-2.57-2.02-2.57-1.04,0-1.85,.74-2.12,1.62-.07,.2-.11,.47-.11,.74v5.24h-1.58v-6.36Z"/><path d="M54.54,372.1l-.13-1.1h-.05c-.49,.68-1.42,1.3-2.67,1.3-1.76,0-2.66-1.24-2.66-2.5,0-2.11,1.87-3.26,5.24-3.24v-.18c0-.72-.2-2.02-1.98-2.02-.81,0-1.66,.25-2.27,.65l-.36-1.04c.72-.47,1.76-.77,2.86-.77,2.67,0,3.31,1.82,3.31,3.56v3.26c0,.76,.04,1.49,.14,2.09h-1.44Zm-.23-4.45c-1.73-.04-3.69,.27-3.69,1.96,0,1.03,.68,1.51,1.49,1.51,1.13,0,1.85-.72,2.11-1.46,.05-.16,.09-.34,.09-.5v-1.51Z"/><path d="M60.23,360.89v2.5h2.27v1.21h-2.27v4.7c0,1.08,.31,1.69,1.19,1.69,.41,0,.72-.05,.92-.11l.07,1.19c-.31,.13-.79,.22-1.4,.22-.74,0-1.33-.23-1.71-.67-.45-.47-.61-1.24-.61-2.27v-4.75h-1.35v-1.21h1.35v-2.09l1.55-.41Z"/><path d="M66.04,360.94c.02,.54-.38,.97-1.01,.97-.56,0-.95-.43-.95-.97s.41-.99,.99-.99,.97,.43,.97,.99Zm-1.76,11.16v-8.71h1.58v8.71h-1.58Z"/><path d="M69.1,363.39l1.71,4.9c.29,.79,.52,1.51,.7,2.23h.05c.2-.72,.45-1.44,.74-2.23l1.69-4.9h1.66l-3.42,8.71h-1.51l-3.31-8.71h1.69Z"/><path d="M77.85,368.03c.04,2.14,1.4,3.02,2.99,3.02,1.13,0,1.82-.2,2.41-.45l.27,1.13c-.56,.25-1.51,.54-2.9,.54-2.68,0-4.29-1.76-4.29-4.39s1.55-4.7,4.09-4.7c2.84,0,3.6,2.5,3.6,4.1,0,.32-.04,.58-.05,.74h-6.12Zm4.65-1.13c.02-1.01-.41-2.57-2.2-2.57-1.6,0-2.3,1.48-2.43,2.57h4.63Z"/></g><g><path d="M503.59,368.3l-.84,2.54h-1.08l2.75-8.08h1.26l2.76,8.08h-1.12l-.86-2.54h-2.87Zm2.65-.82l-.79-2.33c-.18-.53-.3-1.01-.42-1.48h-.02c-.12,.48-.25,.97-.41,1.46l-.79,2.34h2.43Z"/><path d="M509.62,362.76h4.35v.88h-3.31v2.69h3.06v.86h-3.06v3.66h-1.04v-8.08Z"/><path d="M528.01,369.76c.31,.2,.86,.42,1.39,.42,.77,0,1.13-.38,1.13-.86,0-.5-.3-.78-1.08-1.07-1.04-.37-1.54-.95-1.54-1.64,0-.94,.76-1.7,2-1.7,.59,0,1.1,.17,1.43,.36l-.26,.77c-.23-.14-.65-.34-1.19-.34-.62,0-.97,.36-.97,.79,0,.48,.35,.7,1.1,.98,1.01,.38,1.52,.89,1.52,1.75,0,1.02-.79,1.74-2.17,1.74-.63,0-1.22-.16-1.63-.4l.26-.8Z"/><path d="M534.86,364.03h-.02l-1.36,.73-.2-.8,1.7-.91h.9v7.8h-1.02v-6.81Z"/><path d="M538.81,366c0-.44,.3-.76,.72-.76s.7,.31,.71,.76c0,.42-.28,.74-.72,.74-.42,0-.71-.32-.71-.74Zm0,4.23c0-.44,.3-.76,.72-.76s.7,.31,.71,.76c0,.42-.28,.74-.72,.74-.42,0-.71-.32-.71-.74Z"/><path d="M542.13,368.13c.02,1.43,.93,2.01,1.99,2.01,.76,0,1.21-.13,1.61-.3l.18,.76c-.37,.17-1.01,.36-1.93,.36-1.79,0-2.85-1.18-2.85-2.93s1.03-3.13,2.72-3.13c1.89,0,2.4,1.67,2.4,2.73,0,.22-.02,.38-.04,.49h-4.08Zm3.09-.76c.01-.67-.28-1.71-1.46-1.71-1.07,0-1.54,.98-1.62,1.71h3.08Z"/><path d="M549.51,364.03h-.02l-1.36,.73-.2-.8,1.7-.91h.9v7.8h-1.02v-6.81Z"/><path d="M556.16,367.21v.78h-2.96v-.78h2.96Z"/><path d="M557.25,369.76c.31,.2,.86,.42,1.39,.42,.77,0,1.13-.38,1.13-.86,0-.5-.3-.78-1.08-1.07-1.04-.37-1.54-.95-1.54-1.64,0-.94,.76-1.7,2-1.7,.59,0,1.1,.17,1.43,.36l-.26,.77c-.23-.14-.65-.34-1.19-.34-.62,0-.97,.36-.97,.79,0,.48,.35,.7,1.1,.98,1.01,.38,1.52,.89,1.52,1.75,0,1.02-.79,1.74-2.17,1.74-.63,0-1.22-.16-1.63-.4l.26-.8Z"/><path d="M562.06,369.63c.3,.19,1,.49,1.73,.49,1.36,0,1.78-.86,1.76-1.51-.01-1.09-1-1.56-2.02-1.56h-.59v-.79h.59c.77,0,1.74-.4,1.74-1.32,0-.62-.4-1.18-1.37-1.18-.62,0-1.22,.28-1.56,.52l-.28-.77c.41-.3,1.2-.6,2.04-.6,1.54,0,2.23,.91,2.23,1.86,0,.8-.48,1.49-1.44,1.83v.02c.96,.19,1.74,.91,1.74,2,0,1.25-.97,2.34-2.84,2.34-.88,0-1.64-.28-2.03-.53l.29-.82Z"/><path d="M568.05,366c0-.44,.3-.76,.72-.76s.7,.31,.71,.76c0,.42-.28,.74-.72,.74-.42,0-.71-.32-.71-.74Zm0,4.23c0-.44,.3-.76,.72-.76s.7,.31,.71,.76c0,.42-.28,.74-.72,.74-.42,0-.71-.32-.71-.74Z"/><path d="M570.64,369.76c.31,.2,.86,.42,1.39,.42,.77,0,1.13-.38,1.13-.86,0-.5-.3-.78-1.08-1.07-1.04-.37-1.54-.95-1.54-1.64,0-.94,.76-1.7,2-1.7,.59,0,1.1,.17,1.43,.36l-.26,.77c-.23-.14-.65-.34-1.19-.34-.62,0-.97,.36-.97,.79,0,.48,.35,.7,1.1,.98,1.01,.38,1.52,.89,1.52,1.75,0,1.02-.79,1.74-2.17,1.74-.63,0-1.22-.16-1.63-.4l.26-.8Z"/><path d="M575.2,370.84v-.65l.83-.8c1.99-1.9,2.89-2.9,2.9-4.08,0-.79-.38-1.52-1.55-1.52-.71,0-1.29,.36-1.66,.66l-.34-.74c.54-.46,1.31-.79,2.21-.79,1.68,0,2.39,1.15,2.39,2.27,0,1.44-1.04,2.6-2.69,4.19l-.62,.58v.02h3.5v.88h-4.98Z"/><path d="M581.44,366c0-.44,.3-.76,.72-.76s.7,.31,.71,.76c0,.42-.28,.74-.72,.74-.42,0-.71-.32-.71-.74Zm0,4.23c0-.44,.3-.76,.72-.76s.7,.31,.71,.76c0,.42-.28,.74-.72,.74-.42,0-.71-.32-.71-.74Z"/><path d="M584.77,368.13c.02,1.43,.93,2.01,1.99,2.01,.76,0,1.21-.13,1.61-.3l.18,.76c-.37,.17-1.01,.36-1.93,.36-1.79,0-2.85-1.18-2.85-2.93s1.03-3.13,2.72-3.13c1.89,0,2.4,1.67,2.4,2.73,0,.22-.02,.38-.04,.49h-4.08Zm3.09-.76c.01-.67-.28-1.71-1.46-1.71-1.07,0-1.54,.98-1.62,1.71h3.08Z"/><path d="M589.85,370.84v-.65l.83-.8c1.99-1.9,2.89-2.9,2.9-4.08,0-.79-.38-1.52-1.55-1.52-.71,0-1.29,.36-1.66,.66l-.34-.74c.54-.46,1.31-.79,2.21-.79,1.68,0,2.39,1.15,2.39,2.27,0,1.44-1.04,2.6-2.69,4.19l-.62,.58v.02h3.5v.88h-4.98Z"/><path d="M598.79,367.21v.78h-2.96v-.78h2.96Z"/><path d="M599.88,369.76c.31,.2,.86,.42,1.39,.42,.77,0,1.13-.38,1.13-.86,0-.5-.3-.78-1.08-1.07-1.04-.37-1.54-.95-1.54-1.64,0-.94,.76-1.7,2-1.7,.59,0,1.1,.17,1.43,.36l-.26,.77c-.23-.14-.65-.34-1.19-.34-.62,0-.97,.36-.97,.79,0,.48,.35,.7,1.1,.98,1.01,.38,1.52,.89,1.52,1.75,0,1.02-.79,1.74-2.17,1.74-.63,0-1.22-.16-1.63-.4l.26-.8Z"/><path d="M604.7,369.63c.3,.19,1,.49,1.73,.49,1.36,0,1.78-.86,1.76-1.51-.01-1.09-1-1.56-2.02-1.56h-.59v-.79h.59c.77,0,1.74-.4,1.74-1.32,0-.62-.4-1.18-1.37-1.18-.62,0-1.22,.28-1.56,.52l-.28-.77c.41-.3,1.2-.6,2.04-.6,1.54,0,2.23,.91,2.23,1.86,0,.8-.48,1.49-1.44,1.83v.02c.96,.19,1.74,.91,1.74,2,0,1.25-.97,2.34-2.84,2.34-.88,0-1.64-.28-2.03-.53l.29-.82Z"/></g><rect class="cls-7" x="348.76" y="356.38" width="54.8" height="19.98"/><g><path class="cls-5" d="M350.43,369.76c.31,.2,.86,.42,1.39,.42,.77,0,1.13-.38,1.13-.86,0-.5-.3-.78-1.08-1.07-1.04-.37-1.54-.95-1.54-1.64,0-.94,.76-1.7,2-1.7,.59,0,1.1,.17,1.43,.36l-.26,.77c-.23-.14-.65-.34-1.19-.34-.62,0-.97,.36-.97,.79,0,.48,.35,.7,1.1,.98,1.01,.38,1.52,.89,1.52,1.75,0,1.02-.79,1.74-2.17,1.74-.64,0-1.22-.16-1.63-.4l.26-.8Z"/><path class="cls-5" d="M355.25,369.63c.3,.19,1,.49,1.73,.49,1.36,0,1.77-.86,1.76-1.51-.01-1.09-1-1.56-2.02-1.56h-.59v-.79h.59c.77,0,1.74-.4,1.74-1.32,0-.62-.4-1.18-1.37-1.18-.62,0-1.22,.28-1.56,.52l-.28-.77c.41-.3,1.2-.6,2.04-.6,1.54,0,2.23,.91,2.23,1.86,0,.8-.48,1.49-1.44,1.83v.02c.96,.19,1.74,.91,1.74,2,0,1.25-.97,2.34-2.84,2.34-.88,0-1.64-.28-2.03-.53l.29-.82Z"/></g><g><path class="cls-5" d="M202.18,370.22c.31,.2,.86,.42,1.39,.42,.77,0,1.13-.38,1.13-.86,0-.5-.3-.78-1.08-1.07-1.04-.37-1.54-.95-1.54-1.64,0-.94,.76-1.7,2-1.7,.59,0,1.1,.17,1.43,.36l-.26,.77c-.23-.14-.65-.34-1.19-.34-.62,0-.97,.36-.97,.79,0,.48,.35,.7,1.1,.98,1.01,.38,1.52,.89,1.52,1.75,0,1.02-.79,1.74-2.17,1.74-.64,0-1.22-.16-1.63-.4l.26-.8Z"/><path class="cls-5" d="M209.04,364.48h-.02l-1.36,.73-.2-.8,1.7-.91h.9v7.8h-1.02v-6.81Z"/></g><g><path d="M90.02,372.1v-7.51h-1.22v-1.21h1.22v-.47c0-2.3,1.35-3.8,3.8-3.8,.81,0,1.76,.25,2.21,.58l-.45,1.21c-.38-.27-1.06-.5-1.84-.5-1.67,0-2.16,1.17-2.16,2.56v.43h5.06v8.71h-1.57v-7.51h-3.49v7.51h-1.57Z"/><path d="M99.27,366.11c0-1.03-.02-1.91-.07-2.72h1.39l.05,1.71h.07c.4-1.17,1.35-1.91,2.41-1.91,.18,0,.31,.02,.45,.05v1.49c-.16-.04-.32-.05-.54-.05-1.12,0-1.91,.85-2.12,2.03-.04,.22-.07,.47-.07,.74v4.65h-1.57v-6Z"/><path d="M104.94,370.48c.47,.31,1.3,.63,2.09,.63,1.15,0,1.69-.58,1.69-1.3,0-.76-.45-1.17-1.62-1.6-1.57-.56-2.3-1.42-2.3-2.47,0-1.4,1.13-2.56,3.01-2.56,.88,0,1.66,.25,2.14,.54l-.4,1.15c-.34-.22-.97-.5-1.78-.5-.94,0-1.46,.54-1.46,1.19,0,.72,.52,1.04,1.66,1.48,1.51,.58,2.29,1.33,2.29,2.63,0,1.53-1.19,2.61-3.26,2.61-.95,0-1.84-.23-2.45-.59l.4-1.21Z"/><path d="M114.2,360.89v2.5h2.27v1.21h-2.27v4.7c0,1.08,.31,1.69,1.19,1.69,.41,0,.72-.05,.92-.11l.07,1.19c-.31,.13-.79,.22-1.4,.22-.74,0-1.33-.23-1.71-.67-.45-.47-.61-1.24-.61-2.27v-4.75h-1.35v-1.21h1.35v-2.09l1.55-.41Z"/></g><g><path d="M122.73,368.03c.04,2.14,1.4,3.02,2.99,3.02,1.13,0,1.82-.2,2.41-.45l.27,1.13c-.56,.25-1.51,.54-2.9,.54-2.68,0-4.29-1.76-4.29-4.39s1.55-4.7,4.09-4.7c2.84,0,3.6,2.5,3.6,4.1,0,.32-.04,.58-.05,.74h-6.12Zm4.65-1.13c.02-1.01-.41-2.57-2.2-2.57-1.6,0-2.3,1.48-2.43,2.57h4.63Z"/><path d="M131.55,363.39l1.24,1.87c.32,.49,.59,.94,.88,1.42h.05c.29-.52,.58-.97,.86-1.44l1.22-1.85h1.71l-2.97,4.21,3.06,4.5h-1.8l-1.28-1.96c-.34-.5-.63-.99-.94-1.51h-.04c-.29,.52-.59,.99-.92,1.51l-1.26,1.96h-1.75l3.1-4.45-2.95-4.27h1.76Z"/><path d="M146.76,367.67c0,3.22-2.23,4.63-4.34,4.63-2.36,0-4.18-1.73-4.18-4.48,0-2.92,1.91-4.63,4.32-4.63s4.2,1.82,4.2,4.48Zm-6.91,.09c0,1.91,1.1,3.35,2.65,3.35s2.65-1.42,2.65-3.39c0-1.48-.74-3.35-2.61-3.35s-2.68,1.73-2.68,3.38Z"/><path d="M148.76,365.75c0-.9-.02-1.64-.07-2.36h1.4l.09,1.44h.04c.43-.83,1.44-1.64,2.88-1.64,1.21,0,3.08,.72,3.08,3.71v5.2h-1.58v-5.02c0-1.4-.52-2.57-2.02-2.57-1.04,0-1.85,.74-2.12,1.62-.07,.2-.11,.47-.11,.74v5.24h-1.58v-6.36Z"/></g></g><g><path class="cls-1" d="M252.45,437.12s3.18,12.07,11.3,12.07,11.22-11.74,11.22-11.74"/><path class="cls-2" d="M350.17,419.34s-13.83-12.07-49.16-12.07-48.83,11.74-48.83,11.74"/><rect class="cls-7" x="199.08" y="418.2" width="54.8" height="19.98"/><rect class="cls-6" x="273.76" y="418.2" width="54.8" height="19.98"/><g><path class="cls-5" d="M243.17,429.96c.02,1.43,.94,2.01,1.99,2.01,.76,0,1.21-.13,1.61-.3l.18,.76c-.37,.17-1.01,.36-1.93,.36-1.79,0-2.85-1.18-2.85-2.93s1.03-3.13,2.72-3.13c1.9,0,2.4,1.67,2.4,2.73,0,.22-.02,.38-.04,.49h-4.08Zm3.09-.76c.01-.67-.28-1.71-1.46-1.71-1.07,0-1.54,.98-1.62,1.71h3.08Z"/><path class="cls-5" d="M250.55,425.85h-.02l-1.36,.73-.2-.8,1.7-.91h.9v7.8h-1.02v-6.81Z"/></g><g><path class="cls-5" d="M276.18,432.04c.31,.2,.86,.42,1.39,.42,.77,0,1.13-.38,1.13-.86,0-.5-.3-.78-1.08-1.07-1.04-.37-1.54-.95-1.54-1.64,0-.94,.76-1.7,2-1.7,.59,0,1.1,.17,1.43,.36l-.26,.77c-.23-.14-.65-.34-1.19-.34-.62,0-.97,.36-.97,.79,0,.48,.35,.7,1.1,.98,1.01,.38,1.52,.89,1.52,1.75,0,1.02-.79,1.74-2.17,1.74-.64,0-1.22-.16-1.63-.4l.26-.8Z"/><path class="cls-5" d="M280.74,433.12v-.65l.83-.8c1.99-1.9,2.89-2.9,2.9-4.08,0-.79-.38-1.52-1.55-1.52-.71,0-1.3,.36-1.66,.66l-.34-.74c.54-.46,1.31-.79,2.21-.79,1.68,0,2.39,1.15,2.39,2.27,0,1.44-1.04,2.6-2.69,4.19l-.62,.58v.02h3.5v.88h-4.98Z"/></g><g><path class="cls-5" d="M315.92,430.41c.02,1.43,.94,2.01,1.99,2.01,.76,0,1.21-.13,1.61-.3l.18,.76c-.37,.17-1.01,.36-1.93,.36-1.79,0-2.85-1.18-2.85-2.93s1.03-3.13,2.72-3.13c1.9,0,2.4,1.67,2.4,2.73,0,.22-.02,.38-.04,.49h-4.08Zm3.09-.76c.01-.67-.28-1.71-1.46-1.71-1.07,0-1.54,.98-1.62,1.71h3.08Z"/><path class="cls-5" d="M321,433.12v-.65l.83-.8c1.99-1.9,2.89-2.9,2.9-4.08,0-.79-.38-1.52-1.55-1.52-.71,0-1.3,.36-1.66,.66l-.34-.74c.54-.46,1.31-.79,2.21-.79,1.68,0,2.39,1.15,2.39,2.27,0,1.44-1.04,2.6-2.69,4.19l-.62,.58v.02h3.5v.88h-4.98Z"/></g><g><path d="M4.7,430.11l-1.26,3.82H1.82l4.12-12.14h1.89l4.14,12.14h-1.67l-1.3-3.82H4.7Zm3.98-1.22l-1.19-3.49c-.27-.79-.45-1.51-.63-2.21h-.04c-.18,.72-.38,1.46-.61,2.2l-1.19,3.51h3.65Z"/><path d="M13.65,421.14h1.58v12.78h-1.58v-12.78Z"/><path d="M19.81,422.71v2.5h2.27v1.21h-2.27v4.7c0,1.08,.31,1.69,1.19,1.69,.41,0,.72-.05,.92-.11l.07,1.19c-.31,.13-.79,.22-1.4,.22-.74,0-1.33-.23-1.71-.67-.45-.47-.61-1.24-.61-2.27v-4.75h-1.35v-1.21h1.35v-2.09l1.55-.41Z"/><path d="M24.63,429.86c.04,2.14,1.4,3.02,2.99,3.02,1.13,0,1.82-.2,2.41-.45l.27,1.13c-.56,.25-1.51,.54-2.9,.54-2.68,0-4.29-1.76-4.29-4.39s1.55-4.7,4.09-4.7c2.84,0,3.6,2.5,3.6,4.1,0,.32-.04,.58-.05,.74h-6.12Zm4.65-1.13c.02-1.01-.41-2.57-2.2-2.57-1.6,0-2.3,1.48-2.43,2.57h4.63Z"/><path d="M32.77,427.93c0-1.03-.02-1.91-.07-2.72h1.39l.05,1.71h.07c.4-1.17,1.35-1.91,2.41-1.91,.18,0,.31,.02,.45,.05v1.49c-.16-.04-.32-.05-.54-.05-1.12,0-1.91,.85-2.12,2.03-.04,.22-.07,.47-.07,.74v4.65h-1.57v-6Z"/><path d="M38.72,427.57c0-.9-.02-1.64-.07-2.36h1.4l.09,1.44h.04c.43-.83,1.44-1.64,2.88-1.64,1.21,0,3.08,.72,3.08,3.71v5.2h-1.58v-5.02c0-1.4-.52-2.57-2.02-2.57-1.04,0-1.85,.74-2.12,1.62-.07,.2-.11,.47-.11,.74v5.24h-1.58v-6.36Z"/><path d="M53.54,433.93l-.13-1.1h-.05c-.49,.68-1.42,1.3-2.67,1.3-1.76,0-2.66-1.24-2.66-2.5,0-2.11,1.87-3.26,5.24-3.24v-.18c0-.72-.2-2.02-1.98-2.02-.81,0-1.66,.25-2.27,.65l-.36-1.04c.72-.47,1.76-.77,2.86-.77,2.67,0,3.31,1.82,3.31,3.56v3.26c0,.76,.04,1.49,.14,2.09h-1.44Zm-.23-4.45c-1.73-.04-3.69,.27-3.69,1.96,0,1.03,.68,1.51,1.49,1.51,1.13,0,1.85-.72,2.11-1.46,.05-.16,.09-.34,.09-.5v-1.51Z"/><path d="M59.23,422.71v2.5h2.27v1.21h-2.27v4.7c0,1.08,.31,1.69,1.19,1.69,.41,0,.72-.05,.92-.11l.07,1.19c-.31,.13-.79,.22-1.4,.22-.74,0-1.33-.23-1.71-.67-.45-.47-.61-1.24-.61-2.27v-4.75h-1.35v-1.21h1.35v-2.09l1.55-.41Z"/><path d="M65.04,422.76c.02,.54-.38,.97-1.01,.97-.56,0-.95-.43-.95-.97s.41-.99,.99-.99,.97,.43,.97,.99Zm-1.76,11.16v-8.71h1.58v8.71h-1.58Z"/><path d="M68.1,425.21l1.71,4.9c.29,.79,.52,1.51,.7,2.23h.05c.2-.72,.45-1.44,.74-2.23l1.69-4.9h1.66l-3.42,8.71h-1.51l-3.31-8.71h1.69Z"/><path d="M76.85,429.86c.04,2.14,1.4,3.02,2.99,3.02,1.13,0,1.82-.2,2.41-.45l.27,1.13c-.56,.25-1.51,.54-2.9,.54-2.68,0-4.29-1.76-4.29-4.39s1.55-4.7,4.09-4.7c2.84,0,3.6,2.5,3.6,4.1,0,.32-.04,.58-.05,.74h-6.12Zm4.65-1.13c.02-1.01-.41-2.57-2.2-2.57-1.6,0-2.3,1.48-2.43,2.57h4.63Z"/></g><g><path d="M503.59,430.12l-.84,2.54h-1.08l2.75-8.08h1.26l2.76,8.08h-1.12l-.86-2.54h-2.87Zm2.65-.82l-.79-2.33c-.18-.53-.3-1.01-.42-1.48h-.02c-.12,.48-.25,.97-.41,1.46l-.79,2.34h2.43Z"/><path d="M509.62,424.58h1.04v7.21h3.45v.88h-4.5v-8.08Z"/><path d="M528.56,429.96c.02,1.43,.93,2.01,1.99,2.01,.76,0,1.21-.13,1.61-.3l.18,.76c-.37,.17-1.01,.36-1.93,.36-1.79,0-2.85-1.18-2.85-2.93s1.03-3.13,2.72-3.13c1.89,0,2.4,1.67,2.4,2.73,0,.22-.02,.38-.04,.49h-4.08Zm3.09-.76c.01-.67-.28-1.71-1.46-1.71-1.07,0-1.54,.98-1.62,1.71h3.08Z"/><path d="M535.94,425.85h-.02l-1.36,.73-.2-.8,1.7-.91h.9v7.8h-1.02v-6.81Z"/><path d="M542.59,429.03v.78h-2.96v-.78h2.96Z"/><path d="M543.68,431.59c.31,.2,.86,.42,1.39,.42,.77,0,1.13-.38,1.13-.86,0-.5-.3-.78-1.08-1.07-1.04-.37-1.54-.95-1.54-1.64,0-.94,.76-1.7,2-1.7,.59,0,1.1,.17,1.43,.36l-.26,.77c-.23-.14-.65-.34-1.19-.34-.62,0-.97,.36-.97,.79,0,.48,.35,.7,1.1,.98,1.01,.38,1.52,.89,1.52,1.75,0,1.02-.79,1.74-2.17,1.74-.63,0-1.22-.16-1.63-.4l.26-.8Z"/><path d="M548.24,432.67v-.65l.83-.8c1.99-1.9,2.89-2.9,2.9-4.08,0-.79-.38-1.52-1.55-1.52-.71,0-1.29,.36-1.66,.66l-.34-.74c.54-.46,1.31-.79,2.21-.79,1.68,0,2.39,1.15,2.39,2.27,0,1.44-1.04,2.6-2.69,4.19l-.62,.58v.02h3.5v.88h-4.98Z"/><path d="M554.48,427.82c0-.44,.3-.76,.72-.76s.7,.31,.71,.76c0,.42-.28,.74-.72,.74-.42,0-.71-.32-.71-.74Zm0,4.23c0-.44,.3-.76,.72-.76s.7,.31,.71,.76c0,.42-.28,.74-.72,.74-.42,0-.71-.32-.71-.74Z"/><path d="M557.8,429.96c.02,1.43,.93,2.01,1.99,2.01,.76,0,1.21-.13,1.61-.3l.18,.76c-.37,.17-1.01,.36-1.93,.36-1.79,0-2.85-1.18-2.85-2.93s1.03-3.13,2.72-3.13c1.89,0,2.4,1.67,2.4,2.73,0,.22-.02,.38-.04,.49h-4.08Zm3.09-.76c.01-.67-.28-1.71-1.46-1.71-1.07,0-1.54,.98-1.62,1.71h3.08Z"/><path d="M562.89,432.67v-.65l.83-.8c1.99-1.9,2.89-2.9,2.9-4.08,0-.79-.38-1.52-1.55-1.52-.71,0-1.29,.36-1.66,.66l-.34-.74c.54-.46,1.31-.79,2.21-.79,1.68,0,2.39,1.15,2.39,2.27,0,1.44-1.04,2.6-2.69,4.19l-.62,.58v.02h3.5v.88h-4.98Z"/><path d="M569.13,427.82c0-.44,.3-.76,.72-.76s.7,.31,.71,.76c0,.42-.28,.74-.72,.74-.42,0-.71-.32-.71-.74Zm0,4.23c0-.44,.3-.76,.72-.76s.7,.31,.71,.76c0,.42-.28,.74-.72,.74-.42,0-.71-.32-.71-.74Z"/><path d="M572.45,429.96c.02,1.43,.93,2.01,1.99,2.01,.76,0,1.21-.13,1.61-.3l.18,.76c-.37,.17-1.01,.36-1.93,.36-1.79,0-2.85-1.18-2.85-2.93s1.03-3.13,2.72-3.13c1.89,0,2.4,1.67,2.4,2.73,0,.22-.02,.38-.04,.49h-4.08Zm3.09-.76c.01-.67-.28-1.71-1.46-1.71-1.07,0-1.54,.98-1.62,1.71h3.08Z"/><path d="M579.83,425.85h-.02l-1.36,.73-.2-.8,1.7-.91h.9v7.8h-1.02v-6.81Z"/><path d="M586.48,429.03v.78h-2.96v-.78h2.96Z"/><path d="M587.57,431.59c.31,.2,.86,.42,1.39,.42,.77,0,1.13-.38,1.13-.86,0-.5-.3-.78-1.08-1.07-1.04-.37-1.54-.95-1.54-1.64,0-.94,.76-1.7,2-1.7,.59,0,1.1,.17,1.43,.36l-.26,.77c-.23-.14-.65-.34-1.19-.34-.62,0-.97,.36-.97,.79,0,.48,.35,.7,1.1,.98,1.01,.38,1.52,.89,1.52,1.75,0,1.02-.79,1.74-2.17,1.74-.63,0-1.22-.16-1.63-.4l.26-.8Z"/><path d="M592.39,431.45c.3,.19,1,.49,1.73,.49,1.36,0,1.78-.86,1.76-1.51-.01-1.09-1-1.56-2.02-1.56h-.59v-.79h.59c.77,0,1.74-.4,1.74-1.32,0-.62-.4-1.18-1.37-1.18-.62,0-1.22,.28-1.56,.52l-.28-.77c.41-.3,1.2-.6,2.04-.6,1.54,0,2.23,.91,2.23,1.86,0,.8-.48,1.49-1.44,1.83v.02c.96,.19,1.74,.91,1.74,2,0,1.25-.97,2.34-2.84,2.34-.88,0-1.64-.28-2.03-.53l.29-.82Z"/><path d="M598.37,427.82c0-.44,.3-.76,.72-.76s.7,.31,.71,.76c0,.42-.28,.74-.72,.74-.42,0-.71-.32-.71-.74Zm0,4.23c0-.44,.3-.76,.72-.76s.7,.31,.71,.76c0,.42-.28,.74-.72,.74-.42,0-.71-.32-.71-.74Z"/><path d="M601.7,429.96c.02,1.43,.93,2.01,1.99,2.01,.76,0,1.21-.13,1.61-.3l.18,.76c-.37,.17-1.01,.36-1.93,.36-1.79,0-2.85-1.18-2.85-2.93s1.03-3.13,2.72-3.13c1.89,0,2.4,1.67,2.4,2.73,0,.22-.02,.38-.04,.49h-4.08Zm3.09-.76c.01-.67-.28-1.71-1.46-1.71-1.07,0-1.54,.98-1.62,1.71h3.08Z"/><path d="M607.04,431.45c.3,.19,1,.49,1.73,.49,1.36,0,1.78-.86,1.76-1.51-.01-1.09-1-1.56-2.02-1.56h-.59v-.79h.59c.77,0,1.74-.4,1.74-1.32,0-.62-.4-1.18-1.37-1.18-.62,0-1.22,.28-1.56,.52l-.28-.77c.41-.3,1.2-.6,2.04-.6,1.54,0,2.23,.91,2.23,1.86,0,.8-.48,1.49-1.44,1.83v.02c.96,.19,1.74,.91,1.74,2,0,1.25-.97,2.34-2.84,2.34-.88,0-1.64-.28-2.03-.53l.29-.82Z"/></g><rect class="cls-4" x="348.76" y="418.2" width="54.8" height="19.98"/><g><path class="cls-5" d="M350.43,431.59c.31,.2,.86,.42,1.39,.42,.77,0,1.13-.38,1.13-.86,0-.5-.3-.78-1.08-1.07-1.04-.37-1.54-.95-1.54-1.64,0-.94,.76-1.7,2-1.7,.59,0,1.1,.17,1.43,.36l-.26,.77c-.23-.14-.65-.34-1.19-.34-.62,0-.97,.36-.97,.79,0,.48,.35,.7,1.1,.98,1.01,.38,1.52,.89,1.52,1.75,0,1.02-.79,1.74-2.17,1.74-.64,0-1.22-.16-1.63-.4l.26-.8Z"/><path class="cls-5" d="M355.25,431.45c.3,.19,1,.49,1.73,.49,1.36,0,1.77-.86,1.76-1.51-.01-1.09-1-1.56-2.02-1.56h-.59v-.79h.59c.77,0,1.74-.4,1.74-1.32,0-.62-.4-1.18-1.37-1.18-.62,0-1.22,.28-1.56,.52l-.28-.77c.41-.3,1.2-.6,2.04-.6,1.54,0,2.23,.91,2.23,1.86,0,.8-.48,1.49-1.44,1.83v.02c.96,.19,1.74,.91,1.74,2,0,1.25-.97,2.34-2.84,2.34-.88,0-1.64-.28-2.03-.53l.29-.82Z"/></g><g><path class="cls-5" d="M392.17,429.96c.02,1.43,.94,2.01,1.99,2.01,.76,0,1.21-.13,1.61-.3l.18,.76c-.37,.17-1.01,.36-1.93,.36-1.79,0-2.85-1.18-2.85-2.93s1.03-3.13,2.72-3.13c1.9,0,2.4,1.67,2.4,2.73,0,.22-.02,.38-.04,.49h-4.08Zm3.09-.76c.01-.67-.28-1.71-1.46-1.71-1.07,0-1.54,.98-1.62,1.71h3.08Z"/><path class="cls-5" d="M397.51,431.45c.3,.19,1,.49,1.73,.49,1.36,0,1.77-.86,1.76-1.51-.01-1.09-1-1.56-2.02-1.56h-.59v-.79h.59c.77,0,1.74-.4,1.74-1.32,0-.62-.4-1.18-1.37-1.18-.62,0-1.22,.28-1.56,.52l-.28-.77c.41-.3,1.2-.6,2.04-.6,1.54,0,2.23,.91,2.23,1.86,0,.8-.48,1.49-1.44,1.83v.02c.96,.19,1.74,.91,1.74,2,0,1.25-.97,2.34-2.84,2.34-.88,0-1.64-.28-2.03-.53l.29-.82Z"/></g></g><g><g><line class="cls-3" x1="169.4" y1="14.37" x2="449.84" y2="14.37"/><polygon class="cls-7" points="442.51 25.12 482.62 14.38 442.51 3.62 442.51 25.12"/></g><g><path class="cls-7" d="M160.44,6.7h-6.37l-.64,4.29c.39-.05,.74-.1,1.36-.1,1.28,0,2.57,.28,3.6,.9,1.31,.74,2.39,2.18,2.39,4.29,0,3.26-2.59,5.7-6.21,5.7-1.82,0-3.36-.51-4.16-1.03l.56-1.72c.69,.41,2.05,.92,3.57,.92,2.13,0,3.95-1.39,3.95-3.62-.03-2.16-1.46-3.7-4.8-3.7-.95,0-1.69,.1-2.31,.18l1.08-8.01h7.99v1.9Z"/><path class="cls-7" d="M163.39,10.17c.59-2.16,1.69-4.93,2.39-6.11l1.44-.15c-.54,1.52-1.23,4.16-1.52,6.01l-2.31,.26Z"/></g><g><path class="cls-7" d="M485.01,18.9c.64,.41,2.13,1.05,3.7,1.05,2.9,0,3.8-1.85,3.77-3.24-.03-2.34-2.13-3.34-4.31-3.34h-1.26v-1.69h1.26c1.64,0,3.72-.85,3.72-2.82,0-1.34-.85-2.52-2.93-2.52-1.34,0-2.62,.59-3.34,1.1l-.59-1.64c.87-.64,2.57-1.28,4.37-1.28,3.29,0,4.78,1.95,4.78,3.98,0,1.72-1.03,3.18-3.08,3.93v.05c2.05,.41,3.72,1.95,3.72,4.29,0,2.67-2.08,5.01-6.09,5.01-1.87,0-3.52-.59-4.34-1.13l.62-1.75Z"/><path class="cls-7" d="M497.39,10.17c.59-2.16,1.69-4.93,2.39-6.11l1.44-.15c-.54,1.52-1.23,4.16-1.52,6.01l-2.31,.26Z"/></g></g><rect class="cls-4" x="348.76" y="418.2" width="54.8" height="19.98"/><g><path d="M3.61,461.11c.56-.1,1.36-.17,2.47-.17s1.93,.22,2.47,.65c.52,.41,.86,1.08,.86,1.87s-.26,1.46-.74,1.92c-.62,.59-1.55,.85-2.63,.85-.24,0-.46-.01-.62-.04v2.89h-1.81v-7.98Zm1.81,3.67c.16,.04,.35,.05,.61,.05,.97,0,1.57-.49,1.57-1.32,0-.74-.52-1.19-1.43-1.19-.37,0-.62,.04-.76,.07v2.39Z"/><path d="M11.26,466.38c.02,1.43,.94,2.01,1.99,2.01,.76,0,1.21-.13,1.61-.3l.18,.76c-.37,.17-1.01,.36-1.93,.36-1.79,0-2.85-1.18-2.85-2.93s1.03-3.13,2.72-3.13c1.9,0,2.4,1.67,2.4,2.73,0,.22-.02,.38-.04,.49h-4.08Zm3.09-.76c.01-.67-.28-1.71-1.46-1.71-1.07,0-1.54,.98-1.62,1.71h3.08Z"/><path d="M16.68,465.1c0-.68-.01-1.27-.05-1.81h.92l.04,1.14h.05c.26-.78,.9-1.27,1.61-1.27,.12,0,.2,.01,.3,.04v1c-.11-.02-.22-.04-.36-.04-.74,0-1.27,.56-1.42,1.36-.02,.14-.05,.31-.05,.49v3.09h-1.04v-3.99Z"/><path d="M24.62,468.87c-.28,.14-.89,.34-1.67,.34-1.75,0-2.89-1.19-2.89-2.96s1.22-3.08,3.12-3.08c.62,0,1.18,.16,1.46,.3l-.24,.82c-.25-.14-.65-.28-1.22-.28-1.33,0-2.05,.98-2.05,2.19,0,1.34,.86,2.17,2.02,2.17,.6,0,1-.16,1.3-.29l.18,.79Z"/><path d="M26.38,466.38c.02,1.43,.94,2.01,1.99,2.01,.76,0,1.21-.13,1.61-.3l.18,.76c-.37,.17-1.01,.36-1.93,.36-1.79,0-2.85-1.18-2.85-2.93s1.03-3.13,2.72-3.13c1.9,0,2.4,1.67,2.4,2.73,0,.22-.02,.38-.04,.49h-4.08Zm3.09-.76c.01-.67-.28-1.71-1.46-1.71-1.07,0-1.54,.98-1.62,1.71h3.08Z"/><path d="M31.8,464.86c0-.6-.01-1.09-.05-1.57h.94l.06,.96h.02c.29-.55,.96-1.09,1.92-1.09,.8,0,2.05,.48,2.05,2.47v3.47h-1.06v-3.35c0-.94-.35-1.71-1.34-1.71-.7,0-1.24,.49-1.42,1.08-.05,.13-.07,.31-.07,.49v3.49h-1.06v-4.23Z"/><path d="M39.69,461.62v1.67h1.51v.8h-1.51v3.13c0,.72,.2,1.13,.79,1.13,.28,0,.48-.04,.61-.07l.05,.79c-.2,.08-.53,.14-.94,.14-.49,0-.89-.16-1.14-.44-.3-.31-.41-.83-.41-1.51v-3.17h-.9v-.8h.9v-1.39l1.03-.28Z"/><path d="M45.6,469.09l-.08-.73h-.04c-.32,.46-.95,.86-1.77,.86-1.18,0-1.77-.83-1.77-1.67,0-1.4,1.25-2.17,3.49-2.16v-.12c0-.48-.13-1.34-1.32-1.34-.54,0-1.1,.17-1.51,.43l-.24-.7c.48-.31,1.18-.52,1.91-.52,1.77,0,2.21,1.21,2.21,2.37v2.17c0,.5,.02,1,.1,1.39h-.96Zm-.16-2.96c-1.15-.02-2.46,.18-2.46,1.31,0,.68,.46,1.01,1,1.01,.76,0,1.24-.48,1.4-.97,.04-.11,.06-.23,.06-.34v-1.01Z"/><path d="M53.17,463.28c-.02,.42-.05,.89-.05,1.6v3.37c0,1.33-.26,2.15-.83,2.65-.56,.53-1.38,.7-2.11,.7s-1.46-.17-1.93-.48l.26-.8c.38,.24,.98,.46,1.7,.46,1.08,0,1.87-.56,1.87-2.03v-.65h-.02c-.32,.54-.95,.97-1.85,.97-1.44,0-2.47-1.22-2.47-2.83,0-1.97,1.28-3.08,2.61-3.08,1.01,0,1.56,.53,1.81,1.01h.02l.05-.88h.92Zm-1.09,2.29c0-.18-.01-.34-.06-.48-.19-.61-.71-1.12-1.48-1.12-1.01,0-1.73,.85-1.73,2.19,0,1.14,.58,2.09,1.72,2.09,.65,0,1.24-.41,1.46-1.08,.06-.18,.08-.38,.08-.56v-1.04Z"/><path d="M55.47,466.38c.02,1.43,.94,2.01,1.99,2.01,.76,0,1.21-.13,1.61-.3l.18,.76c-.37,.17-1.01,.36-1.93,.36-1.79,0-2.85-1.18-2.85-2.93s1.03-3.13,2.72-3.13c1.9,0,2.4,1.67,2.4,2.73,0,.22-.02,.38-.04,.49h-4.08Zm3.09-.76c.01-.67-.28-1.71-1.46-1.71-1.07,0-1.54,.98-1.62,1.71h3.08Z"/><path d="M63.41,467.21c.49,.25,1.25,.5,2.03,.5,.84,0,1.28-.35,1.28-.88s-.38-.79-1.35-1.14c-1.34-.47-2.22-1.21-2.22-2.39,0-1.38,1.15-2.43,3.06-2.43,.91,0,1.58,.19,2.06,.41l-.41,1.48c-.32-.16-.9-.38-1.69-.38s-1.18,.36-1.18,.78c0,.52,.46,.74,1.5,1.14,1.43,.53,2.1,1.27,2.1,2.41,0,1.36-1.04,2.51-3.26,2.51-.92,0-1.83-.24-2.29-.49l.37-1.51Z"/><path d="M69.91,465.18c0-.74-.02-1.34-.05-1.9h.95l.05,1h.02c.43-.71,1.12-1.13,2.06-1.13,1.4,0,2.46,1.19,2.46,2.95,0,2.09-1.27,3.12-2.64,3.12-.77,0-1.44-.34-1.79-.91h-.02v3.15h-1.04v-6.28Zm1.04,1.55c0,.16,.02,.3,.05,.43,.19,.73,.83,1.24,1.58,1.24,1.12,0,1.76-.91,1.76-2.24,0-1.16-.61-2.16-1.73-2.16-.72,0-1.39,.52-1.6,1.31-.04,.13-.07,.29-.07,.43v1Z"/><path d="M76.74,460.57h1.06v8.52h-1.06v-8.52Z"/><path d="M80.75,461.65c.01,.36-.25,.65-.67,.65-.37,0-.64-.29-.64-.65s.28-.66,.66-.66,.65,.29,.65,.66Zm-1.18,7.44v-5.8h1.06v5.8h-1.06Z"/><path d="M86.52,468.87c-.28,.14-.89,.34-1.67,.34-1.75,0-2.89-1.19-2.89-2.96s1.22-3.08,3.12-3.08c.62,0,1.18,.16,1.46,.3l-.24,.82c-.25-.14-.65-.28-1.22-.28-1.33,0-2.05,.98-2.05,2.19,0,1.34,.86,2.17,2.02,2.17,.6,0,1-.16,1.3-.29l.18,.79Z"/><path d="M88.27,466.38c.02,1.43,.94,2.01,1.99,2.01,.76,0,1.21-.13,1.61-.3l.18,.76c-.37,.17-1.01,.36-1.93,.36-1.79,0-2.85-1.18-2.85-2.93s1.03-3.13,2.72-3.13c1.9,0,2.4,1.67,2.4,2.73,0,.22-.02,.38-.04,.49h-4.08Zm3.09-.76c.01-.67-.28-1.71-1.46-1.71-1.07,0-1.54,.98-1.62,1.71h3.08Z"/><path d="M98.71,460.57v7.02c0,.52,.01,1.1,.05,1.5h-.95l-.05-1.01h-.02c-.32,.65-1.03,1.14-1.98,1.14-1.4,0-2.48-1.19-2.48-2.95-.01-1.93,1.19-3.12,2.6-3.12,.89,0,1.49,.42,1.75,.89h.02v-3.47h1.06Zm-1.06,5.07c0-.13-.01-.31-.05-.44-.16-.67-.73-1.22-1.52-1.22-1.09,0-1.74,.96-1.74,2.24,0,1.18,.58,2.15,1.72,2.15,.71,0,1.35-.47,1.55-1.26,.04-.14,.05-.29,.05-.46v-1.01Z"/><path d="M104.76,461.01v8.08h-1.83v-8.08h1.83Z"/><path d="M106.43,464.86c0-.6-.01-1.09-.05-1.57h.94l.06,.96h.02c.29-.55,.96-1.09,1.92-1.09,.8,0,2.05,.48,2.05,2.47v3.47h-1.06v-3.35c0-.94-.35-1.71-1.34-1.71-.7,0-1.24,.49-1.42,1.08-.05,.13-.07,.31-.07,.49v3.49h-1.06v-4.23Z"/><path d="M117.92,460.77c-.88,1.18-1.51,2.73-1.51,4.91s.66,3.67,1.51,4.87h-.83c-.76-1-1.57-2.53-1.57-4.87,.01-2.36,.82-3.9,1.57-4.91h.83Z"/><path d="M119.08,461.1c.5-.08,1.16-.16,2-.16,1.03,0,1.79,.24,2.27,.67,.44,.38,.71,.97,.71,1.69s-.22,1.31-.62,1.73c-.55,.59-1.45,.89-2.47,.89-.31,0-.6-.01-.84-.07v3.24h-1.04v-7.99Zm1.04,3.9c.23,.06,.52,.08,.86,.08,1.26,0,2.03-.61,2.03-1.73s-.76-1.58-1.91-1.58c-.46,0-.8,.04-.98,.08v3.14Z"/><path d="M125.32,467.82c.47,.29,1.15,.53,1.87,.53,1.07,0,1.69-.56,1.69-1.38,0-.76-.43-1.19-1.52-1.61-1.32-.47-2.13-1.15-2.13-2.29,0-1.26,1.04-2.19,2.61-2.19,.83,0,1.43,.19,1.79,.4l-.29,.85c-.26-.14-.8-.38-1.54-.38-1.1,0-1.52,.66-1.52,1.21,0,.76,.49,1.13,1.61,1.56,1.37,.53,2.06,1.19,2.06,2.37,0,1.25-.92,2.33-2.83,2.33-.78,0-1.63-.23-2.06-.52l.26-.88Z"/><path d="M132.42,461.01v8.08h-1.04v-8.08h1.04Z"/><path d="M133.57,470.54c.85-1.19,1.51-2.75,1.51-4.91s-.65-3.68-1.51-4.87h.82c.77,.98,1.57,2.52,1.57,4.88s-.8,3.87-1.57,4.89h-.82Z"/><path d="M145.17,460.57v7.02c0,.52,.01,1.1,.05,1.5h-.95l-.05-1.01h-.02c-.32,.65-1.03,1.14-1.98,1.14-1.4,0-2.48-1.19-2.48-2.95-.01-1.93,1.19-3.12,2.6-3.12,.89,0,1.49,.42,1.75,.89h.02v-3.47h1.06Zm-1.06,5.07c0-.13-.01-.31-.05-.44-.16-.67-.73-1.22-1.52-1.22-1.09,0-1.74,.96-1.74,2.24,0,1.18,.58,2.15,1.72,2.15,.71,0,1.35-.47,1.55-1.26,.04-.14,.05-.29,.05-.46v-1.01Z"/><path d="M147.52,466.38c.02,1.43,.94,2.01,1.99,2.01,.76,0,1.21-.13,1.61-.3l.18,.76c-.37,.17-1.01,.36-1.93,.36-1.79,0-2.85-1.18-2.85-2.93s1.03-3.13,2.72-3.13c1.9,0,2.4,1.67,2.4,2.73,0,.22-.02,.38-.04,.49h-4.08Zm3.09-.76c.01-.67-.28-1.71-1.46-1.71-1.07,0-1.54,.98-1.62,1.71h3.08Z"/><path d="M152.8,468.01c.31,.2,.86,.42,1.39,.42,.77,0,1.13-.38,1.13-.86,0-.5-.3-.78-1.08-1.07-1.04-.37-1.54-.95-1.54-1.64,0-.94,.76-1.7,2-1.7,.59,0,1.1,.17,1.43,.36l-.26,.77c-.23-.14-.65-.34-1.19-.34-.62,0-.97,.36-.97,.79,0,.48,.35,.7,1.1,.98,1.01,.38,1.52,.89,1.52,1.75,0,1.02-.79,1.74-2.17,1.74-.64,0-1.22-.16-1.63-.4l.26-.8Z"/><path d="M161.83,468.87c-.28,.14-.89,.34-1.67,.34-1.75,0-2.89-1.19-2.89-2.96s1.22-3.08,3.12-3.08c.62,0,1.18,.16,1.46,.3l-.24,.82c-.25-.14-.65-.28-1.22-.28-1.33,0-2.05,.98-2.05,2.19,0,1.34,.86,2.17,2.02,2.17,.6,0,1-.16,1.3-.29l.18,.79Z"/><path d="M163.07,465.1c0-.68-.01-1.27-.05-1.81h.92l.04,1.14h.05c.26-.78,.9-1.27,1.61-1.27,.12,0,.2,.01,.3,.04v1c-.11-.02-.22-.04-.36-.04-.74,0-1.27,.56-1.42,1.36-.02,.14-.05,.31-.05,.49v3.09h-1.04v-3.99Z"/><path d="M168.22,461.65c.01,.36-.25,.65-.67,.65-.37,0-.64-.29-.64-.65s.28-.66,.66-.66,.65,.29,.65,.66Zm-1.18,7.44v-5.8h1.06v5.8h-1.06Z"/><path d="M169.8,469.09c.02-.4,.05-.98,.05-1.5v-7.02h1.04v3.65h.02c.37-.65,1.04-1.07,1.98-1.07,1.44,0,2.46,1.2,2.45,2.96,0,2.08-1.31,3.11-2.6,3.11-.84,0-1.51-.32-1.94-1.09h-.04l-.05,.96h-.91Zm1.09-2.33c0,.13,.02,.26,.05,.38,.2,.73,.82,1.24,1.58,1.24,1.1,0,1.76-.9,1.76-2.23,0-1.16-.6-2.16-1.73-2.16-.72,0-1.39,.49-1.61,1.3-.02,.12-.06,.26-.06,.43v1.04Z"/><path d="M177.26,466.38c.02,1.43,.94,2.01,1.99,2.01,.76,0,1.21-.13,1.61-.3l.18,.76c-.37,.17-1.01,.36-1.93,.36-1.79,0-2.85-1.18-2.85-2.93s1.03-3.13,2.72-3.13c1.9,0,2.4,1.67,2.4,2.73,0,.22-.02,.38-.04,.49h-4.08Zm3.09-.76c.01-.67-.28-1.71-1.46-1.71-1.07,0-1.54,.98-1.62,1.71h3.08Z"/><path d="M182.54,468.01c.31,.2,.86,.42,1.39,.42,.77,0,1.13-.38,1.13-.86,0-.5-.3-.78-1.08-1.07-1.04-.37-1.54-.95-1.54-1.64,0-.94,.76-1.7,2-1.7,.59,0,1.1,.17,1.43,.36l-.26,.77c-.23-.14-.65-.34-1.19-.34-.62,0-.97,.36-.97,.79,0,.48,.35,.7,1.1,.98,1.01,.38,1.52,.89,1.52,1.75,0,1.02-.79,1.74-2.17,1.74-.64,0-1.22-.16-1.63-.4l.26-.8Z"/><path d="M189.98,465.18c0-.74-.02-1.34-.05-1.9h.95l.05,1h.02c.43-.71,1.12-1.13,2.06-1.13,1.4,0,2.46,1.19,2.46,2.95,0,2.09-1.27,3.12-2.64,3.12-.77,0-1.44-.34-1.79-.91h-.02v3.15h-1.04v-6.28Zm1.04,1.55c0,.16,.02,.3,.05,.43,.19,.73,.83,1.24,1.58,1.24,1.12,0,1.76-.91,1.76-2.24,0-1.16-.61-2.16-1.73-2.16-.72,0-1.39,.52-1.6,1.31-.04,.13-.07,.29-.07,.43v1Z"/><path d="M197.4,466.38c.02,1.43,.94,2.01,1.99,2.01,.76,0,1.21-.13,1.61-.3l.18,.76c-.37,.17-1.01,.36-1.93,.36-1.79,0-2.85-1.18-2.85-2.93s1.03-3.13,2.72-3.13c1.9,0,2.4,1.67,2.4,2.73,0,.22-.02,.38-.04,.49h-4.08Zm3.09-.76c.01-.67-.28-1.71-1.46-1.71-1.07,0-1.54,.98-1.62,1.71h3.08Z"/><path d="M202.82,465.1c0-.68-.01-1.27-.05-1.81h.92l.04,1.14h.05c.26-.78,.9-1.27,1.61-1.27,.12,0,.2,.01,.3,.04v1c-.11-.02-.22-.04-.36-.04-.74,0-1.27,.56-1.42,1.36-.02,.14-.05,.31-.05,.49v3.09h-1.04v-3.99Z"/><path d="M210.76,468.87c-.28,.14-.89,.34-1.67,.34-1.75,0-2.89-1.19-2.89-2.96s1.22-3.08,3.12-3.08c.62,0,1.18,.16,1.46,.3l-.24,.82c-.25-.14-.65-.28-1.22-.28-1.33,0-2.05,.98-2.05,2.19,0,1.34,.86,2.17,2.02,2.17,.6,0,1-.16,1.3-.29l.18,.79Z"/><path d="M212.52,466.38c.02,1.43,.94,2.01,1.99,2.01,.76,0,1.21-.13,1.61-.3l.18,.76c-.37,.17-1.01,.36-1.93,.36-1.79,0-2.85-1.18-2.85-2.93s1.03-3.13,2.72-3.13c1.9,0,2.4,1.67,2.4,2.73,0,.22-.02,.38-.04,.49h-4.08Zm3.09-.76c.01-.67-.28-1.71-1.46-1.71-1.07,0-1.54,.98-1.62,1.71h3.08Z"/><path d="M217.94,464.86c0-.6-.01-1.09-.05-1.57h.94l.06,.96h.02c.29-.55,.96-1.09,1.92-1.09,.8,0,2.05,.48,2.05,2.47v3.47h-1.06v-3.35c0-.94-.35-1.71-1.34-1.71-.7,0-1.24,.49-1.42,1.08-.05,.13-.07,.31-.07,.49v3.49h-1.06v-4.23Z"/><path d="M225.83,461.62v1.67h1.51v.8h-1.51v3.13c0,.72,.2,1.13,.79,1.13,.28,0,.48-.04,.61-.07l.05,.79c-.2,.08-.53,.14-.94,.14-.49,0-.89-.16-1.14-.44-.3-.31-.41-.83-.41-1.51v-3.17h-.9v-.8h.9v-1.39l1.03-.28Z"/><path d="M231.74,469.09l-.08-.73h-.04c-.32,.46-.95,.86-1.77,.86-1.18,0-1.77-.83-1.77-1.67,0-1.4,1.25-2.17,3.49-2.16v-.12c0-.48-.13-1.34-1.32-1.34-.54,0-1.1,.17-1.51,.43l-.24-.7c.48-.31,1.18-.52,1.91-.52,1.77,0,2.21,1.21,2.21,2.37v2.17c0,.5,.02,1,.1,1.39h-.96Zm-.16-2.96c-1.15-.02-2.46,.18-2.46,1.31,0,.68,.46,1.01,1,1.01,.76,0,1.24-.48,1.4-.97,.04-.11,.06-.23,.06-.34v-1.01Z"/><path d="M239.31,463.28c-.02,.42-.05,.89-.05,1.6v3.37c0,1.33-.26,2.15-.83,2.65-.56,.53-1.38,.7-2.11,.7s-1.46-.17-1.93-.48l.26-.8c.38,.24,.98,.46,1.7,.46,1.08,0,1.87-.56,1.87-2.03v-.65h-.02c-.32,.54-.95,.97-1.85,.97-1.44,0-2.47-1.22-2.47-2.83,0-1.97,1.28-3.08,2.61-3.08,1.01,0,1.56,.53,1.81,1.01h.02l.05-.88h.92Zm-1.09,2.29c0-.18-.01-.34-.06-.48-.19-.61-.71-1.12-1.48-1.12-1.01,0-1.73,.85-1.73,2.19,0,1.14,.58,2.09,1.72,2.09,.65,0,1.24-.41,1.46-1.08,.06-.18,.08-.38,.08-.56v-1.04Z"/><path d="M241.61,466.38c.02,1.43,.94,2.01,1.99,2.01,.76,0,1.21-.13,1.61-.3l.18,.76c-.37,.17-1.01,.36-1.93,.36-1.79,0-2.85-1.18-2.85-2.93s1.03-3.13,2.72-3.13c1.9,0,2.4,1.67,2.4,2.73,0,.22-.02,.38-.04,.49h-4.08Zm3.09-.76c.01-.67-.28-1.71-1.46-1.71-1.07,0-1.54,.98-1.62,1.71h3.08Z"/><path d="M254.83,466.14c0,2.15-1.49,3.08-2.89,3.08-1.57,0-2.78-1.15-2.78-2.99,0-1.94,1.27-3.08,2.88-3.08s2.79,1.21,2.79,2.99Zm-4.61,.06c0,1.27,.73,2.23,1.76,2.23s1.76-.95,1.76-2.25c0-.98-.49-2.23-1.74-2.23s-1.79,1.15-1.79,2.25Z"/><path d="M256.27,469.09v-5h-.82v-.8h.82v-.28c0-.82,.18-1.56,.67-2.03,.4-.38,.92-.54,1.42-.54,.37,0,.7,.08,.9,.17l-.14,.82c-.16-.07-.37-.13-.67-.13-.9,0-1.13,.79-1.13,1.68v.31h1.4v.8h-1.4v5h-1.04Z"/><path d="M263.48,461.62v1.67h1.51v.8h-1.51v3.13c0,.72,.2,1.13,.79,1.13,.28,0,.48-.04,.61-.07l.05,.79c-.2,.08-.53,.14-.94,.14-.49,0-.89-.16-1.14-.44-.3-.31-.41-.83-.41-1.51v-3.17h-.9v-.8h.9v-1.39l1.03-.28Z"/><path d="M266.18,460.57h1.06v3.62h.02c.17-.3,.43-.56,.76-.74,.31-.18,.68-.3,1.08-.3,.78,0,2.03,.48,2.03,2.48v3.45h-1.06v-3.33c0-.94-.35-1.73-1.34-1.73-.68,0-1.22,.48-1.42,1.06-.06,.14-.07,.3-.07,.5v3.5h-1.06v-8.52Z"/><path d="M273.43,466.38c.02,1.43,.94,2.01,1.99,2.01,.76,0,1.21-.13,1.61-.3l.18,.76c-.37,.17-1.01,.36-1.93,.36-1.79,0-2.85-1.18-2.85-2.93s1.03-3.13,2.72-3.13c1.9,0,2.4,1.67,2.4,2.73,0,.22-.02,.38-.04,.49h-4.08Zm3.09-.76c.01-.67-.28-1.71-1.46-1.71-1.07,0-1.54,.98-1.62,1.71h3.08Z"/><path d="M281.25,468.01c.31,.2,.86,.42,1.39,.42,.77,0,1.13-.38,1.13-.86,0-.5-.3-.78-1.08-1.07-1.04-.37-1.54-.95-1.54-1.64,0-.94,.76-1.7,2-1.7,.59,0,1.1,.17,1.43,.36l-.26,.77c-.23-.14-.65-.34-1.19-.34-.62,0-.97,.36-.97,.79,0,.48,.35,.7,1.1,.98,1.01,.38,1.52,.89,1.52,1.75,0,1.02-.79,1.74-2.17,1.74-.64,0-1.22-.16-1.63-.4l.26-.8Z"/><path d="M286.15,465.18c0-.74-.02-1.34-.05-1.9h.95l.05,1h.02c.43-.71,1.12-1.13,2.06-1.13,1.4,0,2.46,1.19,2.46,2.95,0,2.09-1.27,3.12-2.64,3.12-.77,0-1.44-.34-1.79-.91h-.02v3.15h-1.04v-6.28Zm1.04,1.55c0,.16,.02,.3,.05,.43,.19,.73,.83,1.24,1.58,1.24,1.12,0,1.76-.91,1.76-2.24,0-1.16-.61-2.16-1.73-2.16-.72,0-1.39,.52-1.6,1.31-.04,.13-.07,.29-.07,.43v1Z"/><path d="M292.98,460.57h1.06v8.52h-1.06v-8.52Z"/><path d="M296.99,461.65c.01,.36-.25,.65-.67,.65-.37,0-.64-.29-.64-.65s.28-.66,.66-.66,.65,.29,.65,.66Zm-1.18,7.44v-5.8h1.06v5.8h-1.06Z"/><path d="M302.76,468.87c-.28,.14-.89,.34-1.67,.34-1.75,0-2.89-1.19-2.89-2.96s1.22-3.08,3.12-3.08c.62,0,1.18,.16,1.46,.3l-.24,.82c-.25-.14-.65-.28-1.22-.28-1.33,0-2.05,.98-2.05,2.19,0,1.34,.86,2.17,2.02,2.17,.6,0,1-.16,1.3-.29l.18,.79Z"/><path d="M305.17,461.65c.01,.36-.25,.65-.67,.65-.37,0-.64-.29-.64-.65s.28-.66,.66-.66,.65,.29,.65,.66Zm-1.18,7.44v-5.8h1.06v5.8h-1.06Z"/><path d="M306.8,464.86c0-.6-.01-1.09-.05-1.57h.94l.06,.96h.02c.29-.55,.96-1.09,1.92-1.09,.8,0,2.05,.48,2.05,2.47v3.47h-1.06v-3.35c0-.94-.35-1.71-1.34-1.71-.7,0-1.24,.49-1.42,1.08-.05,.13-.07,.31-.07,.49v3.49h-1.06v-4.23Z"/><path d="M318.46,463.28c-.02,.42-.05,.89-.05,1.6v3.37c0,1.33-.26,2.15-.83,2.65-.56,.53-1.38,.7-2.11,.7s-1.46-.17-1.93-.48l.26-.8c.38,.24,.98,.46,1.7,.46,1.08,0,1.87-.56,1.87-2.03v-.65h-.02c-.32,.54-.95,.97-1.85,.97-1.44,0-2.47-1.22-2.47-2.83,0-1.97,1.28-3.08,2.61-3.08,1.01,0,1.56,.53,1.81,1.01h.02l.05-.88h.92Zm-1.09,2.29c0-.18-.01-.34-.06-.48-.19-.61-.71-1.12-1.48-1.12-1.01,0-1.73,.85-1.73,2.19,0,1.14,.58,2.09,1.72,2.09,.65,0,1.24-.41,1.46-1.08,.06-.18,.08-.38,.08-.56v-1.04Z"/><path d="M323.89,461.65c.01,.36-.25,.65-.67,.65-.37,0-.64-.29-.64-.65s.28-.66,.66-.66,.65,.29,.65,.66Zm-1.18,7.44v-5.8h1.06v5.8h-1.06Z"/><path d="M325.52,464.86c0-.6-.01-1.09-.05-1.57h.94l.06,.96h.02c.29-.55,.96-1.09,1.92-1.09,.8,0,2.05,.48,2.05,2.47v3.47h-1.06v-3.35c0-.94-.35-1.71-1.34-1.71-.7,0-1.24,.49-1.42,1.08-.05,.13-.07,.31-.07,.49v3.49h-1.06v-4.23Z"/><path d="M339.98,466.14c0,2.15-1.49,3.08-2.89,3.08-1.57,0-2.78-1.15-2.78-2.99,0-1.94,1.27-3.08,2.88-3.08s2.79,1.21,2.79,2.99Zm-4.61,.06c0,1.27,.73,2.23,1.76,2.23s1.76-.95,1.76-2.25c0-.98-.49-2.23-1.74-2.23s-1.79,1.15-1.79,2.25Z"/><path d="M341.31,465.1c0-.68-.01-1.27-.05-1.81h.92l.04,1.14h.05c.26-.78,.9-1.27,1.61-1.27,.12,0,.2,.01,.3,.04v1c-.11-.02-.22-.04-.36-.04-.74,0-1.27,.56-1.42,1.36-.02,.14-.05,.31-.05,.49v3.09h-1.04v-3.99Z"/><path d="M348.39,469.09l-.08-.73h-.04c-.32,.46-.95,.86-1.77,.86-1.18,0-1.77-.83-1.77-1.67,0-1.4,1.25-2.17,3.49-2.16v-.12c0-.48-.13-1.34-1.32-1.34-.54,0-1.1,.17-1.51,.43l-.24-.7c.48-.31,1.18-.52,1.91-.52,1.77,0,2.21,1.21,2.21,2.37v2.17c0,.5,.02,1,.1,1.39h-.96Zm-.16-2.96c-1.15-.02-2.46,.18-2.46,1.31,0,.68,.46,1.01,1,1.01,.76,0,1.24-.48,1.4-.97,.04-.11,.06-.23,.06-.34v-1.01Z"/><path d="M350.96,464.86c0-.6-.01-1.09-.05-1.57h.94l.06,.96h.02c.29-.55,.96-1.09,1.92-1.09,.8,0,2.05,.48,2.05,2.47v3.47h-1.06v-3.35c0-.94-.35-1.71-1.34-1.71-.7,0-1.24,.49-1.42,1.08-.05,.13-.07,.31-.07,.49v3.49h-1.06v-4.23Z"/><path d="M362.62,463.28c-.02,.42-.05,.89-.05,1.6v3.37c0,1.33-.26,2.15-.83,2.65-.56,.53-1.38,.7-2.11,.7s-1.46-.17-1.93-.48l.26-.8c.38,.24,.98,.46,1.7,.46,1.08,0,1.87-.56,1.87-2.03v-.65h-.02c-.32,.54-.95,.97-1.85,.97-1.44,0-2.47-1.22-2.47-2.83,0-1.97,1.28-3.08,2.61-3.08,1.01,0,1.56,.53,1.81,1.01h.02l.05-.88h.92Zm-1.09,2.29c0-.18-.01-.34-.06-.48-.19-.61-.71-1.12-1.48-1.12-1.01,0-1.73,.85-1.73,2.19,0,1.14,.58,2.09,1.72,2.09,.65,0,1.24-.41,1.46-1.08,.06-.18,.08-.38,.08-.56v-1.04Z"/><path d="M364.92,466.38c.02,1.43,.94,2.01,1.99,2.01,.76,0,1.21-.13,1.61-.3l.18,.76c-.37,.17-1.01,.36-1.93,.36-1.79,0-2.85-1.18-2.85-2.93s1.03-3.13,2.72-3.13c1.9,0,2.4,1.67,2.4,2.73,0,.22-.02,.38-.04,.49h-4.08Zm3.09-.76c.01-.67-.28-1.71-1.46-1.71-1.07,0-1.54,.98-1.62,1.71h3.08Z"/><path d="M369.94,468.47c0-.44,.3-.76,.72-.76s.71,.31,.71,.76-.28,.76-.72,.76c-.42,0-.71-.32-.71-.76Z"/></g><g><path d="M75.01,57.86c.04,2.14,1.4,3.02,2.99,3.02,1.13,0,1.82-.2,2.41-.45l.27,1.13c-.56,.25-1.51,.54-2.9,.54-2.68,0-4.29-1.76-4.29-4.39s1.55-4.7,4.09-4.7c2.84,0,3.6,2.5,3.6,4.1,0,.32-.04,.58-.05,.74h-6.12Zm4.65-1.13c.02-1.01-.41-2.57-2.2-2.57-1.6,0-2.3,1.48-2.43,2.57h4.63Z"/><path d="M83.83,53.21l1.24,1.87c.32,.49,.59,.94,.88,1.42h.05c.29-.52,.58-.97,.86-1.44l1.22-1.85h1.71l-2.97,4.21,3.06,4.5h-1.8l-1.28-1.96c-.34-.5-.63-.99-.94-1.51h-.04c-.29,.52-.59,.99-.92,1.51l-1.26,1.96h-1.75l3.1-4.45-2.95-4.27h1.76Z"/><path d="M99.04,57.5c0,3.22-2.23,4.63-4.34,4.63-2.36,0-4.18-1.73-4.18-4.48,0-2.92,1.91-4.63,4.32-4.63s4.2,1.82,4.2,4.48Zm-6.91,.09c0,1.91,1.1,3.35,2.65,3.35s2.65-1.42,2.65-3.39c0-1.48-.74-3.35-2.61-3.35s-2.68,1.73-2.68,3.38Z"/><path d="M101.03,55.57c0-.9-.02-1.64-.07-2.36h1.4l.09,1.44h.04c.43-.83,1.44-1.64,2.88-1.64,1.21,0,3.08,.72,3.08,3.71v5.2h-1.58v-5.02c0-1.4-.52-2.57-2.02-2.57-1.04,0-1.85,.74-2.12,1.62-.07,.2-.11,.47-.11,.74v5.24h-1.58v-6.36Z"/></g><g><path d="M88.54,421.14h1.58v12.78h-1.58v-12.78Z"/><path d="M97.61,433.93l-.13-1.1h-.05c-.49,.68-1.42,1.3-2.67,1.3-1.76,0-2.66-1.24-2.66-2.5,0-2.11,1.87-3.26,5.24-3.24v-.18c0-.72-.2-2.02-1.98-2.02-.81,0-1.66,.25-2.27,.65l-.36-1.04c.72-.47,1.76-.77,2.86-.77,2.67,0,3.31,1.82,3.31,3.56v3.26c0,.76,.04,1.49,.14,2.09h-1.44Zm-.23-4.45c-1.73-.04-3.69,.27-3.69,1.96,0,1.03,.68,1.51,1.49,1.51,1.13,0,1.85-.72,2.11-1.46,.05-.16,.09-.34,.09-.5v-1.51Z"/><path d="M101.25,432.31c.47,.31,1.3,.63,2.09,.63,1.15,0,1.69-.58,1.69-1.3,0-.76-.45-1.17-1.62-1.6-1.57-.56-2.3-1.42-2.3-2.47,0-1.4,1.13-2.56,3.01-2.56,.88,0,1.66,.25,2.14,.54l-.4,1.15c-.34-.22-.97-.5-1.78-.5-.94,0-1.46,.54-1.46,1.19,0,.72,.52,1.04,1.66,1.48,1.51,.58,2.29,1.33,2.29,2.63,0,1.53-1.19,2.61-3.26,2.61-.95,0-1.84-.23-2.45-.59l.4-1.21Z"/><path d="M110.5,422.71v2.5h2.27v1.21h-2.27v4.7c0,1.08,.31,1.69,1.19,1.69,.41,0,.72-.05,.92-.11l.07,1.19c-.31,.13-.79,.22-1.4,.22-.74,0-1.33-.23-1.71-.67-.45-.47-.61-1.24-.61-2.27v-4.75h-1.35v-1.21h1.35v-2.09l1.55-.41Z"/></g><g><path d="M119.34,429.86c.04,2.14,1.4,3.02,2.99,3.02,1.13,0,1.82-.2,2.41-.45l.27,1.13c-.56,.25-1.51,.54-2.9,.54-2.68,0-4.29-1.76-4.29-4.39s1.55-4.7,4.09-4.7c2.84,0,3.6,2.5,3.6,4.1,0,.32-.04,.58-.05,.74h-6.12Zm4.65-1.13c.02-1.01-.41-2.57-2.2-2.57-1.6,0-2.3,1.48-2.43,2.57h4.63Z"/><path d="M128.16,425.21l1.24,1.87c.32,.49,.59,.94,.88,1.42h.05c.29-.52,.58-.97,.86-1.44l1.22-1.85h1.71l-2.97,4.21,3.06,4.5h-1.8l-1.28-1.96c-.34-.5-.63-.99-.94-1.51h-.04c-.29,.52-.59,.99-.92,1.51l-1.26,1.96h-1.75l3.1-4.45-2.95-4.27h1.76Z"/><path d="M143.38,429.5c0,3.22-2.23,4.63-4.34,4.63-2.36,0-4.18-1.73-4.18-4.48,0-2.92,1.91-4.63,4.32-4.63s4.2,1.82,4.2,4.48Zm-6.91,.09c0,1.91,1.1,3.35,2.65,3.35s2.65-1.42,2.65-3.39c0-1.48-.74-3.35-2.61-3.35s-2.68,1.73-2.68,3.38Z"/><path d="M145.37,427.57c0-.9-.02-1.64-.07-2.36h1.4l.09,1.44h.04c.43-.83,1.44-1.64,2.88-1.64,1.21,0,3.08,.72,3.08,3.71v5.2h-1.58v-5.02c0-1.4-.52-2.57-2.02-2.57-1.04,0-1.85,.74-2.12,1.62-.07,.2-.11,.47-.11,.74v5.24h-1.58v-6.36Z"/></g></svg>